<?xml version="1.0" encoding="UTF-8"?>
<!DOCTYPE svg PUBLIC "-//W3C//DTD SVG 1.1//EN" "http://www.w3.org/Graphics/SVG/1.1/DTD/svg11.dtd">
<!-- Creator: CorelDRAW X5 -->
<svg xmlns="http://www.w3.org/2000/svg" xml:space="preserve" width="297mm" height="210mm" style="shape-rendering:geometricPrecision; text-rendering:geometricPrecision; image-rendering:optimizeQuality; fill-rule:evenodd; clip-rule:evenodd"
viewBox="0 0 29700 21000"
 xmlns:xlink="http://www.w3.org/1999/xlink">
 <defs>
  <style type="text/css">
   <![CDATA[
    .str0 {stroke:black;stroke-width:50;stroke-linejoin:bevel}
    .fil0 {fill:none}
   ]]>
  </style>
 </defs>
 <g id="Ebene_x0020_1">
  <metadata id="CorelCorpID_0Corel-Layer"/>
  <g id="_741595584">
   <path class="fil0 str0" d="M20481 17426c276,0 500,-224 500,-500"/>
   <line class="fil0 str0" x1="20981" y1="16926" x2="20981" y2= "12426" />
   <path class="fil0 str0" d="M20981 12426c0,-133 -53,-260 -146,-354 -94,-94 -221,-146 -354,-146"/>
   <line class="fil0 str0" x1="20481" y1="11926" x2="8981" y2= "11926" />
   <line class="fil0 str0" x1="8981" y1="11956" x2="20481" y2= "11956" />
   <path class="fil0 str0" d="M20951 12426c0,-125 -50,-244 -138,-332 -88,-88 -208,-138 -332,-138"/>
   <line class="fil0 str0" x1="20951" y1="12426" x2="20951" y2= "16926" />
   <path class="fil0 str0" d="M20481 17396c260,0 470,-210 470,-470"/>
   <line class="fil0 str0" x1="8981" y1="17426" x2="20481" y2= "17426" />
   <line class="fil0 str0" x1="20481" y1="17396" x2="8981" y2= "17396" />
   <path class="fil0 str0" d="M8481 16926c0,133 53,260 146,354 94,94 221,146 354,146"/>
   <path class="fil0 str0" d="M8511 16926c0,125 50,244 138,332 88,88 208,138 332,138"/>
   <line class="fil0 str0" x1="8481" y1="12426" x2="8481" y2= "16926" />
   <line class="fil0 str0" x1="8511" y1="16926" x2="8511" y2= "12426" />
   <path class="fil0 str0" d="M8981 11926c-133,0 -260,53 -354,146 -94,94 -146,221 -146,354"/>
   <path class="fil0 str0" d="M8981 11956c-125,0 -244,50 -332,138 -88,88 -138,208 -138,332"/>
   <path class="fil0 str0" d="M9726 12696c0,-262 -213,-475 -475,-475 -262,0 -475,213 -475,475 0,262 213,475 475,475 262,0 475,-213 475,-475z"/>
   <path class="fil0 str0" d="M9726 16656c0,-262 -213,-475 -475,-475 -262,0 -475,213 -475,475 0,262 213,475 475,475 262,0 475,-213 475,-475z"/>
   <path class="fil0 str0" d="M20686 16656c0,-262 -213,-475 -475,-475 -262,0 -475,213 -475,475 0,262 213,475 475,475 262,0 475,-213 475,-475z"/>
   <path class="fil0 str0" d="M20686 12696c0,-262 -213,-475 -475,-475 -262,0 -475,213 -475,475 0,262 213,475 475,475 262,0 475,-213 475,-475z"/>
   <path class="fil0 str0" d="M13208 14676c0,-141 -114,-255 -255,-255 -141,0 -255,114 -255,255 0,141 114,255 255,255 141,0 255,-114 255,-255z"/>
   <path class="fil0 str0" d="M12281 14676c0,-580 -470,-1050 -1050,-1050 -580,0 -1050,470 -1050,1050 0,580 470,1050 1050,1050 580,0 1050,-470 1050,-1050z"/>
   <path class="fil0 str0" d="M19281 14676c0,-580 -470,-1050 -1050,-1050 -580,0 -1050,470 -1050,1050 0,580 470,1050 1050,1050 580,0 1050,-470 1050,-1050z"/>
   <path class="fil0 str0" d="M16153 14676c0,-84 -68,-153 -152,-153 -84,0 -153,68 -153,153 0,84 68,153 153,153 84,0 153,-68 153,-153z"/>
   <path class="fil0 str0" d="M14986 14676c0,-141 -114,-255 -255,-255 -141,0 -255,114 -255,255 0,141 114,255 255,255 141,0 255,-114 255,-255z"/>
   <path class="fil0 str0" d="M14981 14676c0,-138 -112,-250 -250,-250 -138,0 -250,112 -250,250 0,138 112,250 250,250 138,0 250,-112 250,-250z"/>
   <path class="fil0 str0" d="M9475 12681c0,7 -1,14 -3,20 -3,6 -7,12 -12,16 -5,4 -10,7 -17,9"/>
   <path class="fil0 str0" d="M9444 12727c-6,2 -11,4 -16,7 -6,4 -12,8 -18,14 -5,6 -10,13 -13,19 -3,7 -6,15 -7,22 -1,8 -1,16 0,23 1,6 2,12 4,17"/>
   <path class="fil0 str0" d="M9393 12830c2,6 3,13 3,19 0,6 -2,13 -6,19 -3,6 -8,11 -14,15"/>
   <path class="fil0 str0" d="M9376 12883c67,-45 105,-122 99,-202"/>
   <path class="fil0 str0" d="M9350 12494c6,3 12,8 16,13 4,6 7,12 8,18 1,6 1,13 0,19"/>
   <path class="fil0 str0" d="M9374 12545c-1,6 -2,12 -2,18 0,7 1,15 3,22 2,8 6,15 10,21 4,6 10,12 16,17 6,5 13,9 19,12 5,2 11,4 17,5"/>
   <path class="fil0 str0" d="M9438 12640c6,1 12,4 18,7 5,4 10,9 14,15 4,6 6,13 6,20"/>
   <path class="fil0 str0" d="M9475 12681c-5,-80 -53,-151 -125,-187"/>
   <path class="fil0 str0" d="M9125 12510c6,-4 12,-6 19,-7 7,-1 14,0 20,2 6,2 12,5 16,10"/>
   <path class="fil0 str0" d="M9181 12514c4,4 9,8 14,11 6,3 13,6 21,8 8,2 16,2 23,2 8,-1 16,-2 23,-5 7,-3 14,-7 20,-11 5,-4 9,-8 13,-12"/>
   <path class="fil0 str0" d="M9295 12506c4,-5 9,-9 15,-12 6,-3 13,-5 19,-5 7,0 14,2 20,5"/>
   <path class="fil0 str0" d="M9350 12494c-72,-35 -158,-30 -224,15"/>
   <path class="fil0 str0" d="M9108 12563c-2,-6 -3,-13 -3,-19 0,-6 2,-13 6,-19 3,-6 8,-11 14,-15"/>
   <path class="fil0 str0" d="M9125 12510c-67,45 -105,122 -99,202"/>
   <path class="fil0 str0" d="M9026 12712c0,-7 1,-14 3,-20 3,-6 7,-12 12,-16 5,-4 10,-7 17,-9"/>
   <path class="fil0 str0" d="M9058 12666c6,-2 11,-4 16,-7 6,-4 12,-8 18,-14 5,-6 10,-13 13,-19 3,-7 6,-15 7,-22 1,-8 1,-16 0,-23 -1,-6 -2,-12 -4,-17"/>
   <path class="fil0 str0" d="M9064 12753c-6,-1 -12,-4 -18,-7 -5,-4 -10,-9 -14,-15 -4,-6 -6,-13 -6,-20"/>
   <path class="fil0 str0" d="M9026 12712c5,80 53,151 125,187"/>
   <path class="fil0 str0" d="M9152 12899c-6,-3 -12,-8 -16,-13 -4,-6 -7,-12 -8,-18 -1,-6 -1,-13 0,-19"/>
   <path class="fil0 str0" d="M9128 12848c1,-6 2,-12 2,-18 0,-7 -1,-15 -3,-22 -2,-8 -6,-15 -10,-21 -4,-6 -10,-12 -16,-17 -6,-5 -13,-9 -19,-12 -5,-2 -11,-4 -17,-5"/>
   <path class="fil0 str0" d="M9206 12887c-4,5 -9,9 -15,12 -6,3 -13,5 -19,5 -7,0 -14,-2 -20,-5"/>
   <path class="fil0 str0" d="M9152 12899c72,35 158,30 224,-15"/>
   <path class="fil0 str0" d="M9376 12883c-6,4 -12,6 -19,7 -7,1 -14,0 -20,-2 -6,-2 -12,-5 -16,-10"/>
   <path class="fil0 str0" d="M9320 12879c-4,-4 -9,-8 -14,-11 -6,-3 -13,-6 -21,-8 -8,-2 -16,-2 -23,-2 -8,1 -16,2 -23,5 -7,3 -14,7 -20,11 -5,4 -9,8 -13,12"/>
   <path class="fil0 str0" d="M9716 12696c0,-257 -208,-465 -465,-465 -257,0 -465,208 -465,465 0,257 208,465 465,465 257,0 465,-208 465,-465z"/>
   <path class="fil0 str0" d="M20435 16641c0,7 -1,14 -3,20 -3,6 -7,12 -12,16 -5,4 -10,7 -17,9"/>
   <path class="fil0 str0" d="M20404 16687c-6,2 -11,4 -16,7 -6,4 -12,8 -18,14 -5,6 -10,13 -13,19 -3,7 -6,15 -7,22 -1,8 -1,16 0,23 1,6 2,12 4,17"/>
   <path class="fil0 str0" d="M20353 16790c2,6 3,13 3,19 0,6 -2,13 -6,19 -3,6 -8,11 -14,15"/>
   <path class="fil0 str0" d="M20336 16843c67,-45 105,-122 99,-202"/>
   <path class="fil0 str0" d="M20310 16454c6,3 12,8 16,13 4,6 7,12 8,18 1,6 1,13 0,19"/>
   <path class="fil0 str0" d="M20334 16505c-1,6 -2,12 -2,18 0,7 1,15 3,22 2,8 6,15 10,21 4,6 10,12 16,17 6,5 13,9 19,12 5,2 11,4 17,5"/>
   <path class="fil0 str0" d="M20398 16600c6,1 12,4 18,7 5,4 10,9 14,15 4,6 6,13 6,20"/>
   <path class="fil0 str0" d="M20435 16641c-5,-80 -53,-151 -125,-187"/>
   <path class="fil0 str0" d="M20085 16470c6,-4 12,-6 19,-7 7,-1 14,0 20,2 6,2 12,5 16,10"/>
   <path class="fil0 str0" d="M20141 16474c4,4 9,8 14,11 6,3 13,6 21,8 8,2 16,2 23,2 8,-1 16,-2 23,-5 7,-3 14,-7 20,-11 5,-4 9,-8 13,-12"/>
   <path class="fil0 str0" d="M20255 16466c4,-5 9,-9 15,-12 6,-3 13,-5 19,-5 7,0 14,2 20,5"/>
   <path class="fil0 str0" d="M20310 16454c-72,-35 -158,-30 -224,15"/>
   <path class="fil0 str0" d="M20068 16523c-2,-6 -3,-13 -3,-19 0,-6 2,-13 6,-19 3,-6 8,-11 14,-15"/>
   <path class="fil0 str0" d="M20085 16470c-67,45 -105,122 -99,202"/>
   <path class="fil0 str0" d="M19986 16672c0,-7 1,-14 3,-20 3,-6 7,-12 12,-16 5,-4 10,-7 17,-9"/>
   <path class="fil0 str0" d="M20018 16626c6,-2 11,-4 16,-7 6,-4 12,-8 18,-14 5,-6 10,-13 13,-19 3,-7 6,-15 7,-22 1,-8 1,-16 0,-23 -1,-6 -2,-12 -4,-17"/>
   <path class="fil0 str0" d="M20024 16713c-6,-1 -12,-4 -18,-7 -5,-4 -10,-9 -14,-15 -4,-6 -6,-13 -6,-20"/>
   <path class="fil0 str0" d="M19986 16672c5,80 53,151 125,187"/>
   <path class="fil0 str0" d="M20112 16859c-6,-3 -12,-8 -16,-13 -4,-6 -7,-12 -8,-18 -1,-6 -1,-13 0,-19"/>
   <path class="fil0 str0" d="M20088 16808c1,-6 2,-12 2,-18 0,-7 -1,-15 -3,-22 -2,-8 -6,-15 -10,-21 -4,-6 -10,-12 -16,-17 -6,-5 -13,-9 -19,-12 -5,-2 -11,-4 -17,-5"/>
   <path class="fil0 str0" d="M20166 16847c-4,5 -9,9 -15,12 -6,3 -13,5 -19,5 -7,0 -14,-2 -20,-5"/>
   <path class="fil0 str0" d="M20112 16859c72,35 158,30 224,-15"/>
   <path class="fil0 str0" d="M20336 16843c-6,4 -12,6 -19,7 -7,1 -14,0 -20,-2 -6,-2 -12,-5 -16,-10"/>
   <path class="fil0 str0" d="M20280 16839c-4,-4 -9,-8 -14,-11 -6,-3 -13,-6 -21,-8 -8,-2 -16,-2 -23,-2 -8,1 -16,2 -23,5 -7,3 -14,7 -20,11 -5,4 -9,8 -13,12"/>
   <path class="fil0 str0" d="M20676 16656c0,-257 -208,-465 -465,-465 -257,0 -465,208 -465,465 0,257 208,465 465,465 257,0 465,-208 465,-465z"/>
   <path class="fil0 str0" d="M20435 12681c0,7 -1,14 -3,20 -3,6 -7,12 -12,16 -5,4 -10,7 -17,9"/>
   <path class="fil0 str0" d="M20404 12727c-6,2 -11,4 -16,7 -6,4 -12,8 -18,14 -5,6 -10,13 -13,19 -3,7 -6,15 -7,22 -1,8 -1,16 0,23 1,6 2,12 4,17"/>
   <path class="fil0 str0" d="M20353 12830c2,6 3,13 3,19 0,6 -2,13 -6,19 -3,6 -8,11 -14,15"/>
   <path class="fil0 str0" d="M20336 12883c67,-45 105,-122 99,-202"/>
   <path class="fil0 str0" d="M20310 12494c6,3 12,8 16,13 4,6 7,12 8,18 1,6 1,13 0,19"/>
   <path class="fil0 str0" d="M20334 12545c-1,6 -2,12 -2,18 0,7 1,15 3,22 2,8 6,15 10,21 4,6 10,12 16,17 6,5 13,9 19,12 5,2 11,4 17,5"/>
   <path class="fil0 str0" d="M20398 12640c6,1 12,4 18,7 5,4 10,9 14,15 4,6 6,13 6,20"/>
   <path class="fil0 str0" d="M20435 12681c-5,-80 -53,-151 -125,-187"/>
   <path class="fil0 str0" d="M20085 12510c6,-4 12,-6 19,-7 7,-1 14,0 20,2 6,2 12,5 16,10"/>
   <path class="fil0 str0" d="M20141 12514c4,4 9,8 14,11 6,3 13,6 21,8 8,2 16,2 23,2 8,-1 16,-2 23,-5 7,-3 14,-7 20,-11 5,-4 9,-8 13,-12"/>
   <path class="fil0 str0" d="M20255 12506c4,-5 9,-9 15,-12 6,-3 13,-5 19,-5 7,0 14,2 20,5"/>
   <path class="fil0 str0" d="M20310 12494c-72,-35 -158,-30 -224,15"/>
   <path class="fil0 str0" d="M20068 12563c-2,-6 -3,-13 -3,-19 0,-6 2,-13 6,-19 3,-6 8,-11 14,-15"/>
   <path class="fil0 str0" d="M20085 12510c-67,45 -105,122 -99,202"/>
   <path class="fil0 str0" d="M19986 12712c0,-7 1,-14 3,-20 3,-6 7,-12 12,-16 5,-4 10,-7 17,-9"/>
   <path class="fil0 str0" d="M20018 12666c6,-2 11,-4 16,-7 6,-4 12,-8 18,-14 5,-6 10,-13 13,-19 3,-7 6,-15 7,-22 1,-8 1,-16 0,-23 -1,-6 -2,-12 -4,-17"/>
   <path class="fil0 str0" d="M20024 12753c-6,-1 -12,-4 -18,-7 -5,-4 -10,-9 -14,-15 -4,-6 -6,-13 -6,-20"/>
   <path class="fil0 str0" d="M19986 12712c5,80 53,151 125,187"/>
   <path class="fil0 str0" d="M20112 12899c-6,-3 -12,-8 -16,-13 -4,-6 -7,-12 -8,-18 -1,-6 -1,-13 0,-19"/>
   <path class="fil0 str0" d="M20088 12848c1,-6 2,-12 2,-18 0,-7 -1,-15 -3,-22 -2,-8 -6,-15 -10,-21 -4,-6 -10,-12 -16,-17 -6,-5 -13,-9 -19,-12 -5,-2 -11,-4 -17,-5"/>
   <path class="fil0 str0" d="M20166 12887c-4,5 -9,9 -15,12 -6,3 -13,5 -19,5 -7,0 -14,-2 -20,-5"/>
   <path class="fil0 str0" d="M20112 12899c72,35 158,30 224,-15"/>
   <path class="fil0 str0" d="M20336 12883c-6,4 -12,6 -19,7 -7,1 -14,0 -20,-2 -6,-2 -12,-5 -16,-10"/>
   <path class="fil0 str0" d="M20280 12879c-4,-4 -9,-8 -14,-11 -6,-3 -13,-6 -21,-8 -8,-2 -16,-2 -23,-2 -8,1 -16,2 -23,5 -7,3 -14,7 -20,11 -5,4 -9,8 -13,12"/>
   <path class="fil0 str0" d="M20676 12696c0,-257 -208,-465 -465,-465 -257,0 -465,208 -465,465 0,257 208,465 465,465 257,0 465,-208 465,-465z"/>
   <path class="fil0 str0" d="M9026 16672c0,-7 1,-14 3,-20 3,-6 7,-12 12,-16 5,-4 10,-7 17,-9"/>
   <path class="fil0 str0" d="M9058 16626c6,-2 11,-4 16,-7 6,-4 12,-8 18,-14 5,-6 10,-13 13,-19 3,-7 6,-15 7,-22 1,-8 1,-16 0,-23 -1,-6 -2,-12 -4,-17"/>
   <path class="fil0 str0" d="M9108 16523c-2,-6 -3,-13 -3,-19 0,-6 2,-13 6,-19 3,-6 8,-11 14,-15"/>
   <path class="fil0 str0" d="M9125 16470c-67,45 -105,122 -99,202"/>
   <path class="fil0 str0" d="M9152 16859c-6,-3 -12,-8 -16,-13 -4,-6 -7,-12 -8,-18 -1,-6 -1,-13 0,-19"/>
   <path class="fil0 str0" d="M9128 16808c1,-6 2,-12 2,-18 0,-7 -1,-15 -3,-22 -2,-8 -6,-15 -10,-21 -4,-6 -10,-12 -16,-17 -6,-5 -13,-9 -19,-12 -5,-2 -11,-4 -17,-5"/>
   <path class="fil0 str0" d="M9064 16713c-6,-1 -12,-4 -18,-7 -5,-4 -10,-9 -14,-15 -4,-6 -6,-13 -6,-20"/>
   <path class="fil0 str0" d="M9026 16672c5,80 53,151 125,187"/>
   <path class="fil0 str0" d="M9376 16843c-6,4 -12,6 -19,7 -7,1 -14,0 -20,-2 -6,-2 -12,-5 -16,-10"/>
   <path class="fil0 str0" d="M9320 16839c-4,-4 -9,-8 -14,-11 -6,-3 -13,-6 -21,-8 -8,-2 -16,-2 -23,-2 -8,1 -16,2 -23,5 -7,3 -14,7 -20,11 -5,4 -9,8 -13,12"/>
   <path class="fil0 str0" d="M9206 16847c-4,5 -9,9 -15,12 -6,3 -13,5 -19,5 -7,0 -14,-2 -20,-5"/>
   <path class="fil0 str0" d="M9152 16859c72,35 158,30 224,-15"/>
   <path class="fil0 str0" d="M9393 16790c2,6 3,13 3,19 0,6 -2,13 -6,19 -3,6 -8,11 -14,15"/>
   <path class="fil0 str0" d="M9376 16843c67,-45 105,-122 99,-202"/>
   <path class="fil0 str0" d="M9475 16641c0,7 -1,14 -3,20 -3,6 -7,12 -12,16 -5,4 -10,7 -17,9"/>
   <path class="fil0 str0" d="M9444 16687c-6,2 -11,4 -16,7 -6,4 -12,8 -18,14 -5,6 -10,13 -13,19 -3,7 -6,15 -7,22 -1,8 -1,16 0,23 1,6 2,12 4,17"/>
   <path class="fil0 str0" d="M9438 16600c6,1 12,4 18,7 5,4 10,9 14,15 4,6 6,13 6,20"/>
   <path class="fil0 str0" d="M9475 16641c-5,-80 -53,-151 -125,-187"/>
   <path class="fil0 str0" d="M9350 16454c6,3 12,8 16,13 4,6 7,12 8,18 1,6 1,13 0,19"/>
   <path class="fil0 str0" d="M9374 16505c-1,6 -2,12 -2,18 0,7 1,15 3,22 2,8 6,15 10,21 4,6 10,12 16,17 6,5 13,9 19,12 5,2 11,4 17,5"/>
   <path class="fil0 str0" d="M9295 16466c4,-5 9,-9 15,-12 6,-3 13,-5 19,-5 7,0 14,2 20,5"/>
   <path class="fil0 str0" d="M9350 16454c-72,-35 -158,-30 -224,15"/>
   <path class="fil0 str0" d="M9125 16470c6,-4 12,-6 19,-7 7,-1 14,0 20,2 6,2 12,5 16,10"/>
   <path class="fil0 str0" d="M9181 16474c4,4 9,8 14,11 6,3 13,6 21,8 8,2 16,2 23,2 8,-1 16,-2 23,-5 7,-3 14,-7 20,-11 5,-4 9,-8 13,-12"/>
   <path class="fil0 str0" d="M9716 16656c0,-257 -208,-465 -465,-465 -257,0 -465,208 -465,465 0,257 208,465 465,465 257,0 465,-208 465,-465z"/>
   <line class="fil0 str0" x1="11484" y1="17816" x2="10578" y2= "17816" />
   <path class="fil0 str0" d="M11484 17816c26,0 48,-20 50,-47"/>
   <path class="fil0 str0" d="M10528 17770c2,26 24,47 50,47"/>
   <line class="fil0 str0" x1="10528" y1="17770" x2="10505" y2= "17426" />
   <line class="fil0 str0" x1="11534" y1="17770" x2="11556" y2= "17426" />
   <line class="fil0 str0" x1="18884" y1="17816" x2="17978" y2= "17816" />
   <path class="fil0 str0" d="M18884 17816c26,0 48,-20 50,-47"/>
   <path class="fil0 str0" d="M17928 17770c2,26 24,47 50,47"/>
   <line class="fil0 str0" x1="17928" y1="17770" x2="17905" y2= "17426" />
   <line class="fil0 str0" x1="18934" y1="17770" x2="18956" y2= "17426" />
   <path class="fil0 str0" d="M16151 14676c0,-83 -67,-150 -150,-150 -83,0 -150,67 -150,150 0,83 67,150 150,150 83,0 150,-67 150,-150z"/>
   <path class="fil0 str0" d="M13203 14676c0,-138 -112,-250 -250,-250 -138,0 -250,112 -250,250 0,138 112,250 250,250 138,0 250,-112 250,-250z"/>
   <path class="fil0 str0" d="M19154 14455c13,-15 33,-37 40,-45"/>
   <path class="fil0 str0" d="M19211 14477c-19,-8 -47,-19 -56,-22"/>
   <path class="fil0 str0" d="M19169 14528c14,-14 36,-35 43,-42"/>
   <path class="fil0 str0" d="M19223 14554c-19,-9 -45,-22 -54,-26"/>
   <path class="fil0 str0" d="M19178 14602c15,-12 39,-32 47,-38"/>
   <path class="fil0 str0" d="M19230 14711c-17,-12 -41,-29 -49,-35"/>
   <path class="fil0 str0" d="M19230 14633c-18,-10 -44,-26 -52,-31"/>
   <path class="fil0 str0" d="M19192 14401c-20,-6 -48,-15 -58,-18"/>
   <path class="fil0 str0" d="M19167 14326c-20,-4 -49,-11 -59,-13"/>
   <path class="fil0 str0" d="M19137 14254c-20,-3 -50,-7 -60,-8"/>
   <path class="fil0 str0" d="M19101 14184c-21,-1 -50,-3 -60,-4"/>
   <path class="fil0 str0" d="M19060 14117c-21,0 -51,1 -60,1"/>
   <path class="fil0 str0" d="M19013 14054c-21,2 -50,5 -60,6"/>
   <path class="fil0 str0" d="M18962 13994c-20,4 -50,9 -59,10"/>
   <path class="fil0 str0" d="M18906 13939c-20,5 -49,13 -58,15"/>
   <path class="fil0 str0" d="M18846 13888c-19,7 -48,16 -57,20"/>
   <path class="fil0 str0" d="M18782 13842c-19,8 -46,20 -55,24"/>
   <path class="fil0 str0" d="M18715 13802c-18,10 -45,24 -53,28"/>
   <path class="fil0 str0" d="M18645 13766c-17,11 -43,27 -51,32"/>
   <path class="fil0 str0" d="M18572 13737c-16,12 -40,30 -48,36"/>
   <path class="fil0 str0" d="M18498 13713c-15,14 -38,33 -45,40"/>
   <path class="fil0 str0" d="M18421 13695c-14,15 -35,36 -42,43"/>
   <path class="fil0 str0" d="M18344 13683c-13,16 -32,39 -38,47"/>
   <path class="fil0 str0" d="M18265 13677c-12,17 -29,41 -35,49"/>
   <path class="fil0 str0" d="M18187 13677c-10,18 -26,44 -31,52"/>
   <path class="fil0 str0" d="M18109 13684c-9,19 -22,45 -26,54"/>
   <path class="fil0 str0" d="M18031 13697c-8,19 -19,47 -22,56"/>
   <path class="fil0 str0" d="M17955 13715c-6,20 -15,48 -18,58"/>
   <path class="fil0 str0" d="M17880 13740c-4,20 -11,49 -13,59"/>
   <path class="fil0 str0" d="M17808 13770c-3,20 -7,50 -8,60"/>
   <path class="fil0 str0" d="M17738 13806c-1,21 -3,50 -4,60"/>
   <path class="fil0 str0" d="M17671 13848c0,21 1,51 1,60"/>
   <path class="fil0 str0" d="M17608 13894c2,21 5,50 6,60"/>
   <path class="fil0 str0" d="M17548 13945c4,20 9,50 10,59"/>
   <path class="fil0 str0" d="M17493 14001c5,20 13,49 15,58"/>
   <path class="fil0 str0" d="M17442 14061c7,19 16,48 20,57"/>
   <path class="fil0 str0" d="M17397 14125c8,19 20,46 24,55"/>
   <path class="fil0 str0" d="M17356 14192c10,18 24,45 28,53"/>
   <path class="fil0 str0" d="M17321 14262c11,17 27,43 32,51"/>
   <path class="fil0 str0" d="M17291 14335c12,16 30,40 36,48"/>
   <path class="fil0 str0" d="M17267 14410c14,15 33,38 40,45"/>
   <path class="fil0 str0" d="M17249 14486c15,14 36,35 43,42"/>
   <path class="fil0 str0" d="M17237 14564c16,13 39,32 47,38"/>
   <path class="fil0 str0" d="M17231 14642c17,12 41,29 49,35"/>
   <path class="fil0 str0" d="M17232 14720c18,10 44,26 52,31"/>
   <path class="fil0 str0" d="M17238 14799c19,9 45,22 54,26"/>
   <path class="fil0 str0" d="M17251 14876c19,8 47,19 56,22"/>
   <path class="fil0 str0" d="M17270 14952c20,6 48,15 58,18"/>
   <path class="fil0 str0" d="M17294 15027c20,4 49,11 59,13"/>
   <path class="fil0 str0" d="M17325 15099c20,3 50,7 60,8"/>
   <path class="fil0 str0" d="M17360 15169c21,1 50,3 60,4"/>
   <path class="fil0 str0" d="M17402 15236c21,0 51,-1 60,-1"/>
   <path class="fil0 str0" d="M17448 15299c21,-2 50,-5 60,-6"/>
   <path class="fil0 str0" d="M17500 15359c20,-4 50,-9 59,-10"/>
   <path class="fil0 str0" d="M17555 15414c20,-5 49,-13 58,-15"/>
   <path class="fil0 str0" d="M17615 15465c19,-7 48,-16 57,-20"/>
   <path class="fil0 str0" d="M17679 15511c19,-8 46,-20 55,-24"/>
   <path class="fil0 str0" d="M17746 15551c18,-10 45,-24 53,-28"/>
   <path class="fil0 str0" d="M17816 15587c17,-11 43,-27 51,-32"/>
   <path class="fil0 str0" d="M17889 15616c16,-12 40,-30 48,-36"/>
   <path class="fil0 str0" d="M17964 15640c15,-14 38,-33 45,-40"/>
   <path class="fil0 str0" d="M18040 15658c14,-15 35,-36 42,-43"/>
   <path class="fil0 str0" d="M18118 15670c13,-16 32,-39 38,-47"/>
   <path class="fil0 str0" d="M18196 15676c12,-17 29,-41 35,-49"/>
   <path class="fil0 str0" d="M18275 15676c10,-18 26,-44 31,-52"/>
   <path class="fil0 str0" d="M18353 15669c9,-19 22,-45 26,-54"/>
   <path class="fil0 str0" d="M18430 15656c8,-19 19,-47 22,-56"/>
   <path class="fil0 str0" d="M18507 15638c6,-20 15,-48 18,-58"/>
   <path class="fil0 str0" d="M18581 15613c4,-20 11,-49 13,-59"/>
   <path class="fil0 str0" d="M18654 15583c3,-20 7,-50 8,-60"/>
   <path class="fil0 str0" d="M18723 15547c1,-21 3,-50 4,-60"/>
   <path class="fil0 str0" d="M18790 15505c0,-21 -1,-51 -1,-60"/>
   <path class="fil0 str0" d="M18853 15459c-2,-21 -5,-50 -6,-60"/>
   <path class="fil0 str0" d="M18913 15408c-4,-20 -9,-50 -10,-59"/>
   <path class="fil0 str0" d="M18968 15352c-5,-20 -13,-49 -15,-58"/>
   <path class="fil0 str0" d="M19019 15292c-7,-20 -16,-48 -20,-57"/>
   <path class="fil0 str0" d="M19065 15228c-8,-19 -20,-46 -24,-55"/>
   <path class="fil0 str0" d="M19105 15161c-10,-18 -24,-45 -28,-53"/>
   <path class="fil0 str0" d="M19141 15091c-11,-17 -27,-43 -32,-51"/>
   <path class="fil0 str0" d="M19170 15018c-12,-16 -30,-40 -36,-48"/>
   <path class="fil0 str0" d="M19194 14943c-14,-15 -33,-38 -40,-45"/>
   <path class="fil0 str0" d="M19212 14867c-15,-14 -36,-35 -43,-42"/>
   <path class="fil0 str0" d="M19224 14789c-16,-13 -39,-32 -47,-38"/>
   <path class="fil0 str0" d="M19181 14676c16,-11 41,-29 49,-35"/>
   <path class="fil0 str0" d="M19134 14383c12,-16 30,-40 36,-48"/>
   <path class="fil0 str0" d="M19108 14313c11,-17 27,-42 32,-51"/>
   <path class="fil0 str0" d="M19077 14245c9,-17 23,-44 28,-53"/>
   <path class="fil0 str0" d="M19041 14180c8,-18 20,-46 24,-55"/>
   <path class="fil0 str0" d="M18999 14118c6,-19 16,-47 20,-57"/>
   <path class="fil0 str0" d="M18953 14060c5,-19 13,-48 15,-58"/>
   <path class="fil0 str0" d="M18902 14005c3,-19 9,-49 10,-59"/>
   <path class="fil0 str0" d="M18848 13954c2,-20 5,-50 6,-60"/>
   <path class="fil0 str0" d="M18789 13908c0,-20 1,-50 1,-60"/>
   <path class="fil0 str0" d="M18727 13866c-1,-20 -3,-50 -4,-60"/>
   <path class="fil0 str0" d="M18662 13830c-3,-19 -7,-50 -8,-60"/>
   <path class="fil0 str0" d="M18594 13799c-4,-19 -11,-49 -13,-59"/>
   <path class="fil0 str0" d="M18524 13773c-6,-19 -15,-48 -18,-58"/>
   <path class="fil0 str0" d="M18452 13753c-7,-18 -18,-47 -22,-56"/>
   <path class="fil0 str0" d="M18379 13738c-9,-18 -22,-45 -26,-54"/>
   <path class="fil0 str0" d="M18305 13729c-10,-17 -25,-43 -31,-52"/>
   <path class="fil0 str0" d="M18231 13726c-11,-16 -29,-41 -35,-49"/>
   <path class="fil0 str0" d="M18156 13729c-12,-15 -32,-39 -38,-47"/>
   <path class="fil0 str0" d="M18082 13738c-14,-14 -35,-36 -42,-43"/>
   <path class="fil0 str0" d="M18009 13753c-15,-13 -37,-33 -45,-40"/>
   <path class="fil0 str0" d="M17937 13773c-16,-12 -40,-30 -48,-36"/>
   <path class="fil0 str0" d="M17867 13799c-17,-11 -42,-27 -51,-32"/>
   <path class="fil0 str0" d="M17799 13830c-17,-9 -44,-23 -53,-28"/>
   <path class="fil0 str0" d="M17734 13866c-18,-8 -46,-20 -55,-24"/>
   <path class="fil0 str0" d="M17672 13908c-19,-6 -47,-16 -57,-20"/>
   <path class="fil0 str0" d="M17614 13954c-19,-5 -48,-13 -58,-15"/>
   <path class="fil0 str0" d="M17559 14005c-19,-3 -49,-9 -59,-10"/>
   <path class="fil0 str0" d="M17508 14060c-20,-2 -50,-5 -60,-6"/>
   <path class="fil0 str0" d="M17462 14118c-20,0 -50,-1 -60,-1"/>
   <path class="fil0 str0" d="M17421 14180c-20,1 -50,3 -60,4"/>
   <path class="fil0 str0" d="M17384 14245c-19,3 -50,7 -60,8"/>
   <path class="fil0 str0" d="M17353 14313c-19,4 -49,11 -59,13"/>
   <path class="fil0 str0" d="M17327 14383c-19,6 -48,15 -58,18"/>
   <path class="fil0 str0" d="M17307 14455c-18,7 -47,18 -56,22"/>
   <path class="fil0 str0" d="M17292 14528c-18,9 -45,22 -54,26"/>
   <path class="fil0 str0" d="M17284 14602c-17,10 -43,25 -52,31"/>
   <path class="fil0 str0" d="M17281 14676c-16,11 -41,29 -49,35"/>
   <path class="fil0 str0" d="M17284 14751c-15,12 -39,32 -47,38"/>
   <path class="fil0 str0" d="M17292 14825c-14,14 -36,35 -43,42"/>
   <path class="fil0 str0" d="M17307 14898c-13,15 -33,37 -40,45"/>
   <path class="fil0 str0" d="M17327 14970c-12,16 -30,40 -36,48"/>
   <path class="fil0 str0" d="M17353 15040c-11,17 -27,42 -32,51"/>
   <path class="fil0 str0" d="M17384 15108c-9,17 -23,44 -28,53"/>
   <path class="fil0 str0" d="M17421 15173c-8,18 -20,46 -24,55"/>
   <path class="fil0 str0" d="M17462 15235c-6,19 -16,47 -20,57"/>
   <path class="fil0 str0" d="M17508 15293c-5,19 -13,48 -15,58"/>
   <path class="fil0 str0" d="M17559 15348c-3,19 -9,49 -10,59"/>
   <path class="fil0 str0" d="M17614 15399c-2,20 -5,50 -6,60"/>
   <path class="fil0 str0" d="M17672 15445c0,20 -1,50 -1,60"/>
   <path class="fil0 str0" d="M17734 15487c1,20 3,50 4,60"/>
   <path class="fil0 str0" d="M17799 15523c3,19 7,50 8,60"/>
   <path class="fil0 str0" d="M17867 15554c4,19 11,49 13,59"/>
   <path class="fil0 str0" d="M17937 15580c6,19 15,48 18,58"/>
   <path class="fil0 str0" d="M18009 15600c7,18 18,47 22,56"/>
   <path class="fil0 str0" d="M18082 15615c9,18 22,45 26,54"/>
   <path class="fil0 str0" d="M18156 15624c10,17 25,43 31,52"/>
   <path class="fil0 str0" d="M18231 15626c11,16 29,41 35,49"/>
   <path class="fil0 str0" d="M18305 15624c12,15 32,39 38,47"/>
   <path class="fil0 str0" d="M18379 15615c14,14 35,36 42,43"/>
   <path class="fil0 str0" d="M18452 15600c15,13 37,33 45,40"/>
   <path class="fil0 str0" d="M18524 15580c16,12 40,30 48,36"/>
   <path class="fil0 str0" d="M18594 15554c17,11 42,27 51,32"/>
   <path class="fil0 str0" d="M18662 15523c17,9 44,23 53,28"/>
   <path class="fil0 str0" d="M18727 15487c18,8 46,20 55,24"/>
   <path class="fil0 str0" d="M18789 15445c19,6 47,16 57,20"/>
   <path class="fil0 str0" d="M18848 15399c19,5 48,13 58,15"/>
   <path class="fil0 str0" d="M18902 15348c19,3 49,9 59,10"/>
   <path class="fil0 str0" d="M18953 15293c20,2 50,5 60,6"/>
   <path class="fil0 str0" d="M18999 15235c20,0 50,1 60,1"/>
   <path class="fil0 str0" d="M19041 15173c20,-1 50,-3 60,-4"/>
   <path class="fil0 str0" d="M19077 15108c19,-3 50,-7 60,-8"/>
   <path class="fil0 str0" d="M19108 15040c19,-4 49,-11 59,-13"/>
   <path class="fil0 str0" d="M19134 14970c19,-6 48,-15 58,-18"/>
   <path class="fil0 str0" d="M19154 14898c18,-7 47,-18 56,-22"/>
   <path class="fil0 str0" d="M19169 14825c18,-9 45,-22 54,-26"/>
   <path class="fil0 str0" d="M19178 14751c17,-10 43,-25 52,-31"/>
   <path class="fil0 str0" d="M19212 14486c-1,-3 -1,-6 -2,-9"/>
   <path class="fil0 str0" d="M19224 14564c0,-3 -1,-6 -1,-9"/>
   <path class="fil0 str0" d="M19230 14720c0,-3 0,-6 0,-9"/>
   <path class="fil0 str0" d="M19223 14799c0,-3 1,-6 1,-9"/>
   <path class="fil0 str0" d="M19211 14876c1,-3 1,-6 2,-9"/>
   <path class="fil0 str0" d="M19192 14952c1,-3 2,-6 3,-9"/>
   <path class="fil0 str0" d="M19167 15027c1,-3 2,-6 3,-9"/>
   <path class="fil0 str0" d="M19137 15099c1,-3 3,-6 4,-8"/>
   <path class="fil0 str0" d="M19101 15169c2,-3 3,-5 5,-8"/>
   <path class="fil0 str0" d="M19060 15236c2,-3 3,-5 5,-8"/>
   <path class="fil0 str0" d="M19013 15299c2,-2 4,-5 6,-7"/>
   <path class="fil0 str0" d="M18962 15359c2,-2 4,-5 6,-7"/>
   <path class="fil0 str0" d="M18906 15414c2,-2 5,-4 7,-6"/>
   <path class="fil0 str0" d="M18846 15465c2,-2 5,-4 7,-6"/>
   <path class="fil0 str0" d="M18782 15511c3,-2 5,-3 8,-5"/>
   <path class="fil0 str0" d="M18715 15551c3,-2 5,-3 8,-5"/>
   <path class="fil0 str0" d="M18645 15587c3,-1 6,-3 8,-4"/>
   <path class="fil0 str0" d="M18572 15616c3,-1 6,-2 9,-3"/>
   <path class="fil0 str0" d="M18498 15640c3,-1 6,-2 9,-3"/>
   <path class="fil0 str0" d="M18421 15658c3,-1 6,-1 9,-2"/>
   <path class="fil0 str0" d="M18344 15670c3,0 6,-1 9,-1"/>
   <path class="fil0 str0" d="M18265 15676c3,0 6,0 9,0"/>
   <path class="fil0 str0" d="M18187 15676c3,0 6,0 9,0"/>
   <path class="fil0 str0" d="M18109 15669c3,0 6,1 9,1"/>
   <path class="fil0 str0" d="M18031 15656c3,1 6,1 9,2"/>
   <path class="fil0 str0" d="M17955 15638c3,1 6,2 9,3"/>
   <path class="fil0 str0" d="M17880 15613c3,1 6,2 9,3"/>
   <path class="fil0 str0" d="M17808 15583c3,1 6,3 8,4"/>
   <path class="fil0 str0" d="M17738 15547c3,2 5,3 8,5"/>
   <path class="fil0 str0" d="M17671 15505c3,2 5,3 8,5"/>
   <path class="fil0 str0" d="M17608 15459c2,2 5,4 7,6"/>
   <path class="fil0 str0" d="M17548 15408c2,2 5,4 7,6"/>
   <path class="fil0 str0" d="M17493 15352c2,2 4,5 6,7"/>
   <path class="fil0 str0" d="M17442 15292c2,2 4,5 6,7"/>
   <path class="fil0 str0" d="M17397 15228c2,3 3,5 5,8"/>
   <path class="fil0 str0" d="M17356 15161c2,3 3,5 5,8"/>
   <path class="fil0 str0" d="M17321 15091c1,3 3,6 4,8"/>
   <path class="fil0 str0" d="M17291 15018c1,3 2,6 3,9"/>
   <path class="fil0 str0" d="M17267 14943c1,3 2,6 3,9"/>
   <path class="fil0 str0" d="M17249 14867c1,3 1,6 2,9"/>
   <path class="fil0 str0" d="M17237 14789c0,3 1,6 1,9"/>
   <path class="fil0 str0" d="M17231 14711c0,3 0,6 0,9"/>
   <path class="fil0 str0" d="M17232 14633c0,3 0,6 0,9"/>
   <path class="fil0 str0" d="M17238 14554c0,3 -1,6 -1,9"/>
   <path class="fil0 str0" d="M17251 14477c-1,3 -1,6 -2,9"/>
   <path class="fil0 str0" d="M17270 14401c-1,3 -2,6 -3,9"/>
   <path class="fil0 str0" d="M17294 14326c-1,3 -2,6 -3,9"/>
   <path class="fil0 str0" d="M17325 14254c-1,3 -3,6 -4,8"/>
   <path class="fil0 str0" d="M17360 14184c-2,3 -3,5 -5,8"/>
   <path class="fil0 str0" d="M17402 14117c-2,3 -3,5 -5,8"/>
   <path class="fil0 str0" d="M17448 14054c-2,2 -4,5 -6,7"/>
   <path class="fil0 str0" d="M17500 13994c-2,2 -4,5 -6,7"/>
   <path class="fil0 str0" d="M17555 13939c-2,2 -5,4 -7,6"/>
   <path class="fil0 str0" d="M17615 13888c-2,2 -5,4 -7,6"/>
   <path class="fil0 str0" d="M17679 13842c-3,2 -5,3 -8,5"/>
   <path class="fil0 str0" d="M17746 13802c-3,2 -5,3 -8,5"/>
   <path class="fil0 str0" d="M17816 13766c-3,1 -6,3 -8,4"/>
   <path class="fil0 str0" d="M17889 13737c-3,1 -6,2 -9,3"/>
   <path class="fil0 str0" d="M17964 13713c-3,1 -6,2 -9,3"/>
   <path class="fil0 str0" d="M18040 13695c-3,1 -6,1 -9,2"/>
   <path class="fil0 str0" d="M18118 13683c-3,0 -6,1 -9,1"/>
   <path class="fil0 str0" d="M18196 13677c-3,0 -6,0 -9,0"/>
   <path class="fil0 str0" d="M18275 13677c-3,0 -6,0 -9,0"/>
   <path class="fil0 str0" d="M18353 13684c-3,0 -6,-1 -9,-1"/>
   <path class="fil0 str0" d="M18430 13697c-3,-1 -6,-1 -9,-2"/>
   <path class="fil0 str0" d="M18507 13715c-3,-1 -6,-2 -9,-3"/>
   <path class="fil0 str0" d="M18581 13740c-3,-1 -6,-2 -9,-3"/>
   <path class="fil0 str0" d="M18654 13770c-3,-1 -6,-3 -8,-4"/>
   <path class="fil0 str0" d="M18723 13806c-3,-2 -5,-3 -8,-5"/>
   <path class="fil0 str0" d="M18790 13848c-3,-2 -5,-3 -8,-5"/>
   <path class="fil0 str0" d="M18853 13894c-2,-2 -5,-4 -7,-6"/>
   <path class="fil0 str0" d="M18913 13945c-2,-2 -5,-4 -7,-6"/>
   <path class="fil0 str0" d="M18968 14001c-2,-2 -4,-5 -6,-7"/>
   <path class="fil0 str0" d="M19019 14061c-2,-2 -4,-5 -6,-7"/>
   <path class="fil0 str0" d="M19065 14125c-2,-3 -3,-5 -5,-8"/>
   <path class="fil0 str0" d="M19105 14192c-2,-3 -3,-5 -5,-8"/>
   <path class="fil0 str0" d="M19141 14262c-1,-3 -3,-6 -4,-8"/>
   <path class="fil0 str0" d="M19170 14335c-1,-3 -2,-6 -3,-9"/>
   <path class="fil0 str0" d="M19194 14410c-1,-3 -2,-6 -3,-9"/>
   <path class="fil0 str0" d="M19230 14642c0,-3 0,-6 0,-9"/>
   <path class="fil0 str0" d="M19131 14676c0,-497 -403,-900 -900,-900 -497,0 -900,403 -900,900 0,497 403,900 900,900 497,0 900,-403 900,-900z"/>
   <path class="fil0 str0" d="M11452 15600c15,13 37,33 45,40"/>
   <path class="fil0 str0" d="M11430 15656c8,-19 19,-47 22,-56"/>
   <path class="fil0 str0" d="M11379 15615c14,14 35,36 42,43"/>
   <path class="fil0 str0" d="M11353 15669c9,-19 22,-45 26,-54"/>
   <path class="fil0 str0" d="M11305 15624c12,15 32,39 38,47"/>
   <path class="fil0 str0" d="M11196 15676c12,-17 29,-41 35,-49"/>
   <path class="fil0 str0" d="M11275 15676c10,-18 26,-44 31,-52"/>
   <path class="fil0 str0" d="M11507 15638c6,-20 15,-48 18,-58"/>
   <path class="fil0 str0" d="M11581 15613c4,-20 11,-49 13,-59"/>
   <path class="fil0 str0" d="M11654 15583c3,-20 7,-50 8,-60"/>
   <path class="fil0 str0" d="M11723 15547c1,-21 3,-50 4,-60"/>
   <path class="fil0 str0" d="M11790 15505c0,-21 -1,-51 -1,-60"/>
   <path class="fil0 str0" d="M11853 15459c-2,-21 -5,-50 -6,-60"/>
   <path class="fil0 str0" d="M11913 15408c-4,-20 -9,-50 -10,-59"/>
   <path class="fil0 str0" d="M11968 15352c-5,-20 -13,-49 -15,-58"/>
   <path class="fil0 str0" d="M12019 15292c-7,-20 -16,-48 -20,-57"/>
   <path class="fil0 str0" d="M12065 15228c-8,-19 -20,-46 -24,-55"/>
   <path class="fil0 str0" d="M12105 15161c-10,-18 -24,-45 -28,-53"/>
   <path class="fil0 str0" d="M12141 15091c-11,-17 -27,-43 -32,-51"/>
   <path class="fil0 str0" d="M12170 15018c-12,-16 -30,-40 -36,-48"/>
   <path class="fil0 str0" d="M12194 14943c-14,-15 -33,-38 -40,-45"/>
   <path class="fil0 str0" d="M12212 14867c-15,-14 -36,-35 -43,-42"/>
   <path class="fil0 str0" d="M12224 14789c-16,-13 -39,-32 -47,-38"/>
   <path class="fil0 str0" d="M12230 14711c-17,-12 -41,-29 -49,-35"/>
   <path class="fil0 str0" d="M12230 14633c-18,-10 -44,-26 -52,-31"/>
   <path class="fil0 str0" d="M12223 14554c-19,-9 -45,-22 -54,-26"/>
   <path class="fil0 str0" d="M12211 14477c-19,-8 -47,-19 -56,-22"/>
   <path class="fil0 str0" d="M12192 14401c-20,-6 -48,-15 -58,-18"/>
   <path class="fil0 str0" d="M12167 14326c-20,-4 -49,-11 -59,-13"/>
   <path class="fil0 str0" d="M12137 14254c-20,-3 -50,-7 -60,-8"/>
   <path class="fil0 str0" d="M12101 14184c-21,-1 -50,-3 -60,-4"/>
   <path class="fil0 str0" d="M12060 14117c-21,0 -51,1 -60,1"/>
   <path class="fil0 str0" d="M12013 14054c-21,2 -50,5 -60,6"/>
   <path class="fil0 str0" d="M11962 13994c-20,4 -50,9 -59,10"/>
   <path class="fil0 str0" d="M11906 13939c-20,5 -49,13 -58,15"/>
   <path class="fil0 str0" d="M11846 13888c-19,7 -48,16 -57,20"/>
   <path class="fil0 str0" d="M11782 13842c-19,8 -46,20 -55,24"/>
   <path class="fil0 str0" d="M11715 13802c-18,10 -45,24 -53,28"/>
   <path class="fil0 str0" d="M11645 13766c-17,11 -43,27 -51,32"/>
   <path class="fil0 str0" d="M11572 13737c-16,12 -40,30 -48,36"/>
   <path class="fil0 str0" d="M11498 13713c-15,14 -38,33 -45,40"/>
   <path class="fil0 str0" d="M11421 13695c-14,15 -35,36 -42,43"/>
   <path class="fil0 str0" d="M11344 13683c-13,16 -32,39 -38,47"/>
   <path class="fil0 str0" d="M11265 13677c-12,17 -29,41 -35,49"/>
   <path class="fil0 str0" d="M11187 13677c-10,18 -26,44 -31,52"/>
   <path class="fil0 str0" d="M11109 13684c-9,19 -22,45 -26,54"/>
   <path class="fil0 str0" d="M11031 13697c-8,19 -19,47 -22,56"/>
   <path class="fil0 str0" d="M10955 13715c-6,20 -15,48 -18,58"/>
   <path class="fil0 str0" d="M10880 13740c-4,20 -11,49 -13,59"/>
   <path class="fil0 str0" d="M10808 13770c-3,20 -7,50 -8,60"/>
   <path class="fil0 str0" d="M10738 13806c-1,21 -3,50 -4,60"/>
   <path class="fil0 str0" d="M10671 13848c0,21 1,51 1,60"/>
   <path class="fil0 str0" d="M10608 13894c2,21 5,50 6,60"/>
   <path class="fil0 str0" d="M10548 13945c4,20 9,50 10,59"/>
   <path class="fil0 str0" d="M10493 14001c5,20 13,49 15,58"/>
   <path class="fil0 str0" d="M10442 14061c7,19 16,48 20,57"/>
   <path class="fil0 str0" d="M10397 14125c8,19 20,46 24,55"/>
   <path class="fil0 str0" d="M10356 14192c10,18 24,45 28,53"/>
   <path class="fil0 str0" d="M10321 14262c11,17 27,43 32,51"/>
   <path class="fil0 str0" d="M10291 14335c12,16 30,40 36,48"/>
   <path class="fil0 str0" d="M10267 14410c14,15 33,38 40,45"/>
   <path class="fil0 str0" d="M10249 14486c15,14 36,35 43,42"/>
   <path class="fil0 str0" d="M10237 14564c16,13 39,32 47,38"/>
   <path class="fil0 str0" d="M10231 14642c17,12 41,29 49,35"/>
   <path class="fil0 str0" d="M10232 14720c18,10 44,26 52,31"/>
   <path class="fil0 str0" d="M10238 14799c19,9 45,22 54,26"/>
   <path class="fil0 str0" d="M10251 14876c19,8 47,19 56,22"/>
   <path class="fil0 str0" d="M10270 14952c20,6 48,15 58,18"/>
   <path class="fil0 str0" d="M10294 15027c20,4 49,11 59,13"/>
   <path class="fil0 str0" d="M10325 15099c20,3 50,7 60,8"/>
   <path class="fil0 str0" d="M10360 15169c21,1 50,3 60,4"/>
   <path class="fil0 str0" d="M10402 15236c21,0 51,-1 60,-1"/>
   <path class="fil0 str0" d="M10448 15299c21,-2 50,-5 60,-6"/>
   <path class="fil0 str0" d="M10500 15359c20,-4 50,-9 59,-10"/>
   <path class="fil0 str0" d="M10555 15414c20,-5 49,-13 58,-15"/>
   <path class="fil0 str0" d="M10615 15465c19,-7 48,-16 57,-20"/>
   <path class="fil0 str0" d="M10679 15511c19,-8 46,-20 55,-24"/>
   <path class="fil0 str0" d="M10746 15551c18,-10 45,-24 53,-28"/>
   <path class="fil0 str0" d="M10816 15587c17,-11 43,-27 51,-32"/>
   <path class="fil0 str0" d="M10889 15616c16,-12 40,-30 48,-36"/>
   <path class="fil0 str0" d="M10964 15640c15,-14 38,-33 45,-40"/>
   <path class="fil0 str0" d="M11040 15658c14,-15 35,-36 42,-43"/>
   <path class="fil0 str0" d="M11118 15670c13,-16 32,-39 38,-47"/>
   <path class="fil0 str0" d="M11231 15626c11,16 29,41 35,49"/>
   <path class="fil0 str0" d="M11524 15580c16,12 40,30 48,36"/>
   <path class="fil0 str0" d="M11594 15554c17,11 42,27 51,32"/>
   <path class="fil0 str0" d="M11662 15523c17,9 44,23 53,28"/>
   <path class="fil0 str0" d="M11727 15487c18,8 46,20 55,24"/>
   <path class="fil0 str0" d="M11789 15445c19,6 47,16 57,20"/>
   <path class="fil0 str0" d="M11848 15399c19,5 48,13 58,15"/>
   <path class="fil0 str0" d="M11902 15348c19,3 49,9 59,10"/>
   <path class="fil0 str0" d="M11953 15293c20,2 50,5 60,6"/>
   <path class="fil0 str0" d="M11999 15235c20,0 50,1 60,1"/>
   <path class="fil0 str0" d="M12041 15173c20,-1 50,-3 60,-4"/>
   <path class="fil0 str0" d="M12077 15108c19,-3 50,-7 60,-8"/>
   <path class="fil0 str0" d="M12108 15040c19,-4 49,-11 59,-13"/>
   <path class="fil0 str0" d="M12134 14970c19,-6 48,-15 58,-18"/>
   <path class="fil0 str0" d="M12154 14898c18,-7 47,-18 56,-22"/>
   <path class="fil0 str0" d="M12169 14825c18,-9 45,-22 54,-26"/>
   <path class="fil0 str0" d="M12178 14751c17,-10 43,-25 52,-31"/>
   <path class="fil0 str0" d="M12181 14676c16,-11 41,-29 49,-35"/>
   <path class="fil0 str0" d="M12178 14602c15,-12 39,-32 47,-38"/>
   <path class="fil0 str0" d="M12169 14528c14,-14 36,-35 43,-42"/>
   <path class="fil0 str0" d="M12154 14455c13,-15 33,-37 40,-45"/>
   <path class="fil0 str0" d="M12134 14383c12,-16 30,-40 36,-48"/>
   <path class="fil0 str0" d="M12108 14313c11,-17 27,-42 32,-51"/>
   <path class="fil0 str0" d="M12077 14245c9,-17 23,-44 28,-53"/>
   <path class="fil0 str0" d="M12041 14180c8,-18 20,-46 24,-55"/>
   <path class="fil0 str0" d="M11999 14118c6,-19 16,-47 20,-57"/>
   <path class="fil0 str0" d="M11953 14060c5,-19 13,-48 15,-58"/>
   <path class="fil0 str0" d="M11902 14005c3,-19 9,-49 10,-59"/>
   <path class="fil0 str0" d="M11848 13954c2,-20 5,-50 6,-60"/>
   <path class="fil0 str0" d="M11789 13908c0,-20 1,-50 1,-60"/>
   <path class="fil0 str0" d="M11727 13866c-1,-20 -3,-50 -4,-60"/>
   <path class="fil0 str0" d="M11662 13830c-3,-19 -7,-50 -8,-60"/>
   <path class="fil0 str0" d="M11594 13799c-4,-19 -11,-49 -13,-59"/>
   <path class="fil0 str0" d="M11524 13773c-6,-19 -15,-48 -18,-58"/>
   <path class="fil0 str0" d="M11452 13753c-7,-18 -18,-47 -22,-56"/>
   <path class="fil0 str0" d="M11379 13738c-9,-18 -22,-45 -26,-54"/>
   <path class="fil0 str0" d="M11305 13729c-10,-17 -25,-43 -31,-52"/>
   <path class="fil0 str0" d="M11231 13726c-11,-16 -29,-41 -35,-49"/>
   <path class="fil0 str0" d="M11156 13729c-12,-15 -32,-39 -38,-47"/>
   <path class="fil0 str0" d="M11082 13738c-14,-14 -35,-36 -42,-43"/>
   <path class="fil0 str0" d="M11009 13753c-15,-13 -37,-33 -45,-40"/>
   <path class="fil0 str0" d="M10937 13773c-16,-12 -40,-30 -48,-36"/>
   <path class="fil0 str0" d="M10867 13799c-17,-11 -42,-27 -51,-32"/>
   <path class="fil0 str0" d="M10799 13830c-17,-9 -44,-23 -53,-28"/>
   <path class="fil0 str0" d="M10734 13866c-18,-8 -46,-20 -55,-24"/>
   <path class="fil0 str0" d="M10672 13908c-19,-6 -47,-16 -57,-20"/>
   <path class="fil0 str0" d="M10614 13954c-19,-5 -48,-13 -58,-15"/>
   <path class="fil0 str0" d="M10559 14005c-19,-3 -49,-9 -59,-10"/>
   <path class="fil0 str0" d="M10508 14060c-20,-2 -50,-5 -60,-6"/>
   <path class="fil0 str0" d="M10462 14118c-20,0 -50,-1 -60,-1"/>
   <path class="fil0 str0" d="M10421 14180c-20,1 -50,3 -60,4"/>
   <path class="fil0 str0" d="M10384 14245c-19,3 -50,7 -60,8"/>
   <path class="fil0 str0" d="M10353 14313c-19,4 -49,11 -59,13"/>
   <path class="fil0 str0" d="M10327 14383c-19,6 -48,15 -58,18"/>
   <path class="fil0 str0" d="M10307 14455c-18,7 -47,18 -56,22"/>
   <path class="fil0 str0" d="M10292 14528c-18,9 -45,22 -54,26"/>
   <path class="fil0 str0" d="M10284 14602c-17,10 -43,25 -52,31"/>
   <path class="fil0 str0" d="M10281 14676c-16,11 -41,29 -49,35"/>
   <path class="fil0 str0" d="M10284 14751c-15,12 -39,32 -47,38"/>
   <path class="fil0 str0" d="M10292 14825c-14,14 -36,35 -43,42"/>
   <path class="fil0 str0" d="M10307 14898c-13,15 -33,37 -40,45"/>
   <path class="fil0 str0" d="M10327 14970c-12,16 -30,40 -36,48"/>
   <path class="fil0 str0" d="M10353 15040c-11,17 -27,42 -32,51"/>
   <path class="fil0 str0" d="M10384 15108c-9,17 -23,44 -28,53"/>
   <path class="fil0 str0" d="M10421 15173c-8,18 -20,46 -24,55"/>
   <path class="fil0 str0" d="M10462 15235c-6,19 -16,47 -20,57"/>
   <path class="fil0 str0" d="M10508 15293c-5,19 -13,48 -15,58"/>
   <path class="fil0 str0" d="M10559 15348c-3,19 -9,49 -10,59"/>
   <path class="fil0 str0" d="M10614 15399c-2,20 -5,50 -6,60"/>
   <path class="fil0 str0" d="M10672 15445c0,20 -1,50 -1,60"/>
   <path class="fil0 str0" d="M10734 15487c1,20 3,50 4,60"/>
   <path class="fil0 str0" d="M10799 15523c3,19 7,50 8,60"/>
   <path class="fil0 str0" d="M10867 15554c4,19 11,49 13,59"/>
   <path class="fil0 str0" d="M10937 15580c6,19 15,48 18,58"/>
   <path class="fil0 str0" d="M11009 15600c7,18 18,47 22,56"/>
   <path class="fil0 str0" d="M11082 15615c9,18 22,45 26,54"/>
   <path class="fil0 str0" d="M11156 15624c10,17 25,43 31,52"/>
   <path class="fil0 str0" d="M11421 15658c3,-1 6,-1 9,-2"/>
   <path class="fil0 str0" d="M11344 15670c3,0 6,-1 9,-1"/>
   <path class="fil0 str0" d="M11187 15676c3,0 6,0 9,0"/>
   <path class="fil0 str0" d="M11109 15669c3,0 6,1 9,1"/>
   <path class="fil0 str0" d="M11031 15656c3,1 6,1 9,2"/>
   <path class="fil0 str0" d="M10955 15638c3,1 6,2 9,3"/>
   <path class="fil0 str0" d="M10880 15613c3,1 6,2 9,3"/>
   <path class="fil0 str0" d="M10808 15583c3,1 6,3 8,4"/>
   <path class="fil0 str0" d="M10738 15547c3,2 5,3 8,5"/>
   <path class="fil0 str0" d="M10671 15505c3,2 5,3 8,5"/>
   <path class="fil0 str0" d="M10608 15459c2,2 5,4 7,6"/>
   <path class="fil0 str0" d="M10548 15408c2,2 5,4 7,6"/>
   <path class="fil0 str0" d="M10493 15352c2,2 4,5 6,7"/>
   <path class="fil0 str0" d="M10442 15292c2,2 4,5 6,7"/>
   <path class="fil0 str0" d="M10397 15228c2,3 3,5 5,8"/>
   <path class="fil0 str0" d="M10356 15161c2,3 3,5 5,8"/>
   <path class="fil0 str0" d="M10321 15091c1,3 3,6 4,8"/>
   <path class="fil0 str0" d="M10291 15018c1,3 2,6 3,9"/>
   <path class="fil0 str0" d="M10267 14943c1,3 2,6 3,9"/>
   <path class="fil0 str0" d="M10249 14867c1,3 1,6 2,9"/>
   <path class="fil0 str0" d="M10237 14789c0,3 1,6 1,9"/>
   <path class="fil0 str0" d="M10231 14711c0,3 0,6 0,9"/>
   <path class="fil0 str0" d="M10232 14633c0,3 0,6 0,9"/>
   <path class="fil0 str0" d="M10238 14554c0,3 -1,6 -1,9"/>
   <path class="fil0 str0" d="M10251 14477c-1,3 -1,6 -2,9"/>
   <path class="fil0 str0" d="M10270 14401c-1,3 -2,6 -3,9"/>
   <path class="fil0 str0" d="M10294 14326c-1,3 -2,6 -3,9"/>
   <path class="fil0 str0" d="M10325 14254c-1,3 -3,6 -4,8"/>
   <path class="fil0 str0" d="M10360 14184c-2,3 -3,5 -5,8"/>
   <path class="fil0 str0" d="M10402 14117c-2,3 -3,5 -5,8"/>
   <path class="fil0 str0" d="M10448 14054c-2,2 -4,5 -6,7"/>
   <path class="fil0 str0" d="M10500 13994c-2,2 -4,5 -6,7"/>
   <path class="fil0 str0" d="M10555 13939c-2,2 -5,4 -7,6"/>
   <path class="fil0 str0" d="M10615 13888c-2,2 -5,4 -7,6"/>
   <path class="fil0 str0" d="M10679 13842c-3,2 -5,3 -8,5"/>
   <path class="fil0 str0" d="M10746 13802c-3,2 -5,3 -8,5"/>
   <path class="fil0 str0" d="M10816 13766c-3,1 -6,3 -8,4"/>
   <path class="fil0 str0" d="M10889 13737c-3,1 -6,2 -9,3"/>
   <path class="fil0 str0" d="M10964 13713c-3,1 -6,2 -9,3"/>
   <path class="fil0 str0" d="M11040 13695c-3,1 -6,1 -9,2"/>
   <path class="fil0 str0" d="M11118 13683c-3,0 -6,1 -9,1"/>
   <path class="fil0 str0" d="M11196 13677c-3,0 -6,0 -9,0"/>
   <path class="fil0 str0" d="M11275 13677c-3,0 -6,0 -9,0"/>
   <path class="fil0 str0" d="M11353 13684c-3,0 -6,-1 -9,-1"/>
   <path class="fil0 str0" d="M11430 13697c-3,-1 -6,-1 -9,-2"/>
   <path class="fil0 str0" d="M11507 13715c-3,-1 -6,-2 -9,-3"/>
   <path class="fil0 str0" d="M11581 13740c-3,-1 -6,-2 -9,-3"/>
   <path class="fil0 str0" d="M11654 13770c-3,-1 -6,-3 -8,-4"/>
   <path class="fil0 str0" d="M11723 13806c-3,-2 -5,-3 -8,-5"/>
   <path class="fil0 str0" d="M11790 13848c-3,-2 -5,-3 -8,-5"/>
   <path class="fil0 str0" d="M11853 13894c-2,-2 -5,-4 -7,-6"/>
   <path class="fil0 str0" d="M11913 13945c-2,-2 -5,-4 -7,-6"/>
   <path class="fil0 str0" d="M11968 14001c-2,-2 -4,-5 -6,-7"/>
   <path class="fil0 str0" d="M12019 14061c-2,-2 -4,-5 -6,-7"/>
   <path class="fil0 str0" d="M12065 14125c-2,-3 -3,-5 -5,-8"/>
   <path class="fil0 str0" d="M12105 14192c-2,-3 -3,-5 -5,-8"/>
   <path class="fil0 str0" d="M12141 14262c-1,-3 -3,-6 -4,-8"/>
   <path class="fil0 str0" d="M12170 14335c-1,-3 -2,-6 -3,-9"/>
   <path class="fil0 str0" d="M12194 14410c-1,-3 -2,-6 -3,-9"/>
   <path class="fil0 str0" d="M12212 14486c-1,-3 -1,-6 -2,-9"/>
   <path class="fil0 str0" d="M12224 14564c0,-3 -1,-6 -1,-9"/>
   <path class="fil0 str0" d="M12230 14642c0,-3 0,-6 0,-9"/>
   <path class="fil0 str0" d="M12230 14720c0,-3 0,-6 0,-9"/>
   <path class="fil0 str0" d="M12223 14799c0,-3 1,-6 1,-9"/>
   <path class="fil0 str0" d="M12211 14876c1,-3 1,-6 2,-9"/>
   <path class="fil0 str0" d="M12192 14952c1,-3 2,-6 3,-9"/>
   <path class="fil0 str0" d="M12167 15027c1,-3 2,-6 3,-9"/>
   <path class="fil0 str0" d="M12137 15099c1,-3 3,-6 4,-8"/>
   <path class="fil0 str0" d="M12101 15169c2,-3 3,-5 5,-8"/>
   <path class="fil0 str0" d="M12060 15236c2,-3 3,-5 5,-8"/>
   <path class="fil0 str0" d="M12013 15299c2,-2 4,-5 6,-7"/>
   <path class="fil0 str0" d="M11962 15359c2,-2 4,-5 6,-7"/>
   <path class="fil0 str0" d="M11906 15414c2,-2 5,-4 7,-6"/>
   <path class="fil0 str0" d="M11846 15465c2,-2 5,-4 7,-6"/>
   <path class="fil0 str0" d="M11782 15511c3,-2 5,-3 8,-5"/>
   <path class="fil0 str0" d="M11715 15551c3,-2 5,-3 8,-5"/>
   <path class="fil0 str0" d="M11645 15587c3,-1 6,-3 8,-4"/>
   <path class="fil0 str0" d="M11572 15616c3,-1 6,-2 9,-3"/>
   <path class="fil0 str0" d="M11498 15640c3,-1 6,-2 9,-3"/>
   <path class="fil0 str0" d="M11265 15676c3,0 6,0 9,0"/>
   <path class="fil0 str0" d="M12131 14676c0,-497 -403,-900 -900,-900 -497,0 -900,403 -900,900 0,497 403,900 900,900 497,0 900,-403 900,-900z"/>
  </g>
  <g id="_741588888">
   <path class="fil0 str0" d="M19745 6474c0,-249 -201,-450 -450,-450 -249,0 -450,201 -450,450 0,249 201,450 450,450 249,0 450,-201 450,-450z"/>
   <path class="fil0 str0" d="M18475 6474c0,-249 -201,-450 -450,-450 -249,0 -450,201 -450,450 0,249 201,450 450,450 249,0 450,-201 450,-450z"/>
   <path class="fil0 str0" d="M13395 6474c0,-249 -201,-450 -450,-450 -249,0 -450,201 -450,450 0,249 201,450 450,450 249,0 450,-201 450,-450z"/>
   <path class="fil0 str0" d="M15003 5458c0,-84 -68,-153 -153,-153 -84,0 -153,68 -153,153 0,84 68,153 153,153 84,0 153,-68 153,-153z"/>
   <path class="fil0 str0" d="M15003 6474c0,-84 -68,-153 -153,-153 -84,0 -153,68 -153,153 0,84 68,153 153,153 84,0 153,-68 153,-153z"/>
   <path class="fil0 str0" d="M15003 7490c0,-84 -68,-153 -153,-153 -84,0 -153,68 -153,153 0,84 68,153 153,153 84,0 153,-68 153,-153z"/>
   <path class="fil0 str0" d="M15003 6982c0,-84 -68,-153 -153,-153 -84,0 -153,68 -153,153 0,84 68,153 153,153 84,0 153,-68 153,-153z"/>
   <path class="fil0 str0" d="M15003 5966c0,-84 -68,-153 -153,-153 -84,0 -153,68 -153,153 0,84 68,153 153,153 84,0 153,-68 153,-153z"/>
   <path class="fil0 str0" d="M12125 6474c0,-249 -201,-450 -450,-450 -249,0 -450,201 -450,450 0,249 201,450 450,450 249,0 450,-201 450,-450z"/>
   <path class="fil0 str0" d="M17205 6474c0,-249 -201,-450 -450,-450 -249,0 -450,201 -450,450 0,249 201,450 450,450 249,0 450,-201 450,-450z"/>
   <path class="fil0 str0" d="M10855 6474c0,-249 -201,-450 -450,-450 -249,0 -450,201 -450,450 0,249 201,450 450,450 249,0 450,-201 450,-450z"/>
   <path class="fil0 str0" d="M9390 6474c0,-141 -114,-255 -255,-255 -141,0 -255,114 -255,255 0,141 114,255 255,255 141,0 255,-114 255,-255z"/>
   <path class="fil0 str0" d="M27100 9224c276,0 500,-224 500,-500"/>
   <line class="fil0 str0" x1="27600" y1="8724" x2="27600" y2= "4224" />
   <path class="fil0 str0" d="M27600 4224c0,-133 -53,-260 -146,-354 -94,-94 -221,-146 -354,-146"/>
   <line class="fil0 str0" x1="27100" y1="3724" x2="2600" y2= "3724" />
   <line class="fil0 str0" x1="2600" y1="3754" x2="27100" y2= "3754" />
   <path class="fil0 str0" d="M27570 4224c0,-125 -50,-244 -138,-332 -88,-88 -208,-138 -332,-138"/>
   <line class="fil0 str0" x1="27570" y1="4224" x2="27570" y2= "8724" />
   <path class="fil0 str0" d="M27100 9194c260,0 470,-210 470,-470"/>
   <line class="fil0 str0" x1="2600" y1="9224" x2="27100" y2= "9224" />
   <line class="fil0 str0" x1="27100" y1="9194" x2="2600" y2= "9194" />
   <path class="fil0 str0" d="M2100 8724c0,133 53,260 146,354 94,94 221,146 354,146"/>
   <path class="fil0 str0" d="M2130 8724c0,125 50,244 138,332 88,88 208,138 332,138"/>
   <line class="fil0 str0" x1="2100" y1="4224" x2="2100" y2= "8724" />
   <line class="fil0 str0" x1="2130" y1="8724" x2="2130" y2= "4224" />
   <path class="fil0 str0" d="M2600 3724c-133,0 -260,53 -354,146 -94,94 -146,221 -146,354"/>
   <path class="fil0 str0" d="M2600 3754c-125,0 -244,50 -332,138 -88,88 -138,208 -138,332"/>
   <path class="fil0 str0" d="M3345 4494c0,-262 -213,-475 -475,-475 -262,0 -475,213 -475,475 0,262 213,475 475,475 262,0 475,-213 475,-475z"/>
   <path class="fil0 str0" d="M3345 8454c0,-262 -213,-475 -475,-475 -262,0 -475,213 -475,475 0,262 213,475 475,475 262,0 475,-213 475,-475z"/>
   <path class="fil0 str0" d="M27305 8454c0,-262 -213,-475 -475,-475 -262,0 -475,213 -475,475 0,262 213,475 475,475 262,0 475,-213 475,-475z"/>
   <path class="fil0 str0" d="M27305 4494c0,-262 -213,-475 -475,-475 -262,0 -475,213 -475,475 0,262 213,475 475,475 262,0 475,-213 475,-475z"/>
   <path class="fil0 str0" d="M7650 6474c0,-144 -116,-260 -260,-260 -144,0 -260,116 -260,260 0,144 116,260 260,260 144,0 260,-116 260,-260z"/>
   <path class="fil0 str0" d="M26300 6474c0,-801 -649,-1450 -1450,-1450 -801,0 -1450,649 -1450,1450 0,801 649,1450 1450,1450 801,0 1450,-649 1450,-1450z"/>
   <path class="fil0 str0" d="M6300 6474c0,-801 -649,-1450 -1450,-1450 -801,0 -1450,649 -1450,1450 0,801 649,1450 1450,1450 801,0 1450,-649 1450,-1450z"/>
   <path class="fil0 str0" d="M9385 6474c0,-138 -112,-250 -250,-250 -138,0 -250,112 -250,250 0,138 112,250 250,250 138,0 250,-112 250,-250z"/>
   <line class="fil0 str0" x1="25303" y1="9614" x2="24397" y2= "9614" />
   <path class="fil0 str0" d="M25303 9614c26,0 48,-20 50,-47"/>
   <path class="fil0 str0" d="M24347 9567c2,26 24,47 50,47"/>
   <line class="fil0 str0" x1="24347" y1="9567" x2="24325" y2= "9224" />
   <line class="fil0 str0" x1="25353" y1="9567" x2="25375" y2= "9224" />
   <line class="fil0 str0" x1="5303" y1="9614" x2="4397" y2= "9614" />
   <path class="fil0 str0" d="M5303 9614c26,0 48,-20 50,-47"/>
   <path class="fil0 str0" d="M4347 9567c2,26 24,47 50,47"/>
   <line class="fil0 str0" x1="4347" y1="9567" x2="4325" y2= "9224" />
   <line class="fil0 str0" x1="5353" y1="9567" x2="5375" y2= "9224" />
   <path class="fil0 str0" d="M22770 6474c0,-254 -206,-460 -460,-460 -254,0 -460,206 -460,460 0,254 206,460 460,460 254,0 460,-206 460,-460z"/>
   <path class="fil0 str0" d="M22635 6474c0,-179 -146,-325 -325,-325 -179,0 -325,146 -325,325 0,179 146,325 325,325 179,0 325,-146 325,-325z"/>
   <path class="fil0 str0" d="M5018 7863c14,-28 33,-68 40,-81"/>
   <path class="fil0 str0" d="M4798 7873c18,-25 43,-62 52,-74"/>
   <path class="fil0 str0" d="M4908 7872c16,-27 38,-65 46,-78"/>
   <path class="fil0 str0" d="M5126 7846c11,-29 28,-70 33,-84"/>
   <path class="fil0 str0" d="M5233 7820c9,-30 22,-72 26,-86"/>
   <path class="fil0 str0" d="M5337 7786c7,-30 16,-74 20,-88"/>
   <path class="fil0 str0" d="M5439 7744c4,-31 11,-75 13,-90"/>
   <path class="fil0 str0" d="M5537 7693c2,-31 5,-76 6,-90"/>
   <path class="fil0 str0" d="M5630 7636c-1,-31 -1,-76 -2,-90"/>
   <path class="fil0 str0" d="M5719 7571c-3,-31 -7,-75 -9,-90"/>
   <path class="fil0 str0" d="M5803 7499c-5,-30 -13,-75 -16,-89"/>
   <path class="fil0 str0" d="M5880 7422c-8,-30 -19,-73 -23,-88"/>
   <path class="fil0 str0" d="M5951 7338c-10,-29 -25,-72 -29,-85"/>
   <path class="fil0 str0" d="M6016 7249c-12,-28 -30,-69 -36,-83"/>
   <path class="fil0 str0" d="M6073 7155c-15,-27 -36,-67 -42,-80"/>
   <path class="fil0 str0" d="M6123 7057c-17,-26 -41,-64 -49,-76"/>
   <path class="fil0 str0" d="M6165 6955c-19,-25 -46,-60 -54,-72"/>
   <path class="fil0 str0" d="M6198 6851c-21,-23 -50,-57 -60,-68"/>
   <path class="fil0 str0" d="M6224 6744c-22,-22 -54,-53 -65,-63"/>
   <path class="fil0 str0" d="M6241 6635c-24,-20 -58,-48 -70,-57"/>
   <path class="fil0 str0" d="M6249 6525c-25,-18 -62,-43 -74,-52"/>
   <path class="fil0 str0" d="M6249 6415c-27,-16 -65,-38 -78,-46"/>
   <path class="fil0 str0" d="M6240 6306c-28,-14 -68,-33 -81,-40"/>
   <path class="fil0 str0" d="M6222 6197c-29,-11 -70,-28 -84,-33"/>
   <path class="fil0 str0" d="M6197 6090c-30,-9 -72,-22 -86,-26"/>
   <path class="fil0 str0" d="M6162 5986c-30,-7 -74,-16 -88,-20"/>
   <path class="fil0 str0" d="M6120 5885c-31,-4 -75,-11 -90,-13"/>
   <path class="fil0 str0" d="M6070 5787c-31,-2 -76,-5 -90,-6"/>
   <path class="fil0 str0" d="M6012 5693c-31,1 -76,1 -90,2"/>
   <path class="fil0 str0" d="M5948 5604c-31,3 -75,7 -90,9"/>
   <path class="fil0 str0" d="M5876 5521c-30,5 -75,13 -89,16"/>
   <path class="fil0 str0" d="M5798 5443c-30,8 -73,19 -88,23"/>
   <path class="fil0 str0" d="M5714 5372c-29,10 -72,25 -85,29"/>
   <path class="fil0 str0" d="M5625 5308c-28,12 -69,30 -83,36"/>
   <path class="fil0 str0" d="M5531 5251c-27,15 -67,36 -80,42"/>
   <path class="fil0 str0" d="M5433 5201c-26,17 -64,41 -76,49"/>
   <path class="fil0 str0" d="M5332 5159c-25,19 -60,46 -72,54"/>
   <path class="fil0 str0" d="M5227 5125c-23,21 -57,50 -68,60"/>
   <path class="fil0 str0" d="M5120 5100c-22,22 -53,54 -63,65"/>
   <path class="fil0 str0" d="M5011 5083c-20,24 -48,58 -57,70"/>
   <path class="fil0 str0" d="M4902 5074c-18,25 -43,62 -52,74"/>
   <path class="fil0 str0" d="M4792 5075c-16,27 -38,65 -46,78"/>
   <path class="fil0 str0" d="M4682 5084c-14,28 -33,68 -40,81"/>
   <path class="fil0 str0" d="M4574 5101c-11,29 -28,70 -33,84"/>
   <path class="fil0 str0" d="M4467 5127c-9,30 -22,72 -26,86"/>
   <path class="fil0 str0" d="M4363 5161c-7,30 -16,74 -20,88"/>
   <path class="fil0 str0" d="M4261 5203c-4,31 -11,75 -13,90"/>
   <path class="fil0 str0" d="M4163 5254c-2,31 -5,76 -6,90"/>
   <path class="fil0 str0" d="M4070 5311c1,31 1,76 2,90"/>
   <path class="fil0 str0" d="M3981 5376c3,31 7,75 9,90"/>
   <path class="fil0 str0" d="M3897 5448c5,30 13,75 16,89"/>
   <path class="fil0 str0" d="M3820 5525c8,30 19,73 23,88"/>
   <path class="fil0 str0" d="M3749 5609c10,29 25,72 29,85"/>
   <path class="fil0 str0" d="M3684 5698c12,28 30,69 36,83"/>
   <path class="fil0 str0" d="M3627 5792c15,27 36,67 42,80"/>
   <path class="fil0 str0" d="M3577 5890c17,26 41,64 49,76"/>
   <path class="fil0 str0" d="M3535 5992c19,25 46,60 54,72"/>
   <path class="fil0 str0" d="M3502 6097c21,23 50,57 60,68"/>
   <path class="fil0 str0" d="M3476 6203c22,22 54,53 65,63"/>
   <path class="fil0 str0" d="M3459 6312c24,20 58,48 70,57"/>
   <path class="fil0 str0" d="M3451 6422c25,18 62,43 74,52"/>
   <path class="fil0 str0" d="M3451 6532c27,16 65,38 78,46"/>
   <path class="fil0 str0" d="M3460 6641c28,14 68,33 81,40"/>
   <path class="fil0 str0" d="M3478 6750c29,11 70,28 84,33"/>
   <path class="fil0 str0" d="M3503 6857c30,9 72,22 86,26"/>
   <path class="fil0 str0" d="M3538 6961c30,7 74,16 88,20"/>
   <path class="fil0 str0" d="M3580 7062c31,4 75,11 90,13"/>
   <path class="fil0 str0" d="M3630 7160c31,2 76,5 90,6"/>
   <path class="fil0 str0" d="M3688 7254c31,-1 76,-1 90,-2"/>
   <path class="fil0 str0" d="M3752 7343c31,-3 75,-7 90,-9"/>
   <path class="fil0 str0" d="M3824 7426c30,-5 75,-13 89,-16"/>
   <path class="fil0 str0" d="M3902 7504c30,-8 73,-19 88,-23"/>
   <path class="fil0 str0" d="M3986 7575c29,-10 72,-25 85,-29"/>
   <path class="fil0 str0" d="M4075 7639c28,-12 69,-30 83,-36"/>
   <path class="fil0 str0" d="M4169 7697c27,-15 67,-36 80,-42"/>
   <path class="fil0 str0" d="M4267 7746c26,-17 64,-41 76,-49"/>
   <path class="fil0 str0" d="M4368 7788c25,-19 60,-46 72,-54"/>
   <path class="fil0 str0" d="M4473 7822c23,-21 57,-50 68,-60"/>
   <path class="fil0 str0" d="M4580 7847c22,-22 53,-54 63,-65"/>
   <path class="fil0 str0" d="M4689 7864c20,-24 48,-58 57,-70"/>
   <path class="fil0 str0" d="M4850 7799c17,24 43,61 52,74"/>
   <path class="fil0 str0" d="M4954 7794c19,23 48,58 57,70"/>
   <path class="fil0 str0" d="M5057 7782c20,21 52,54 63,65"/>
   <path class="fil0 str0" d="M5159 7762c22,19 56,50 68,60"/>
   <path class="fil0 str0" d="M5259 7734c23,18 60,45 72,54"/>
   <path class="fil0 str0" d="M5357 7698c25,16 63,40 76,49"/>
   <path class="fil0 str0" d="M5452 7654c26,14 66,35 80,42"/>
   <path class="fil0 str0" d="M5542 7603c27,12 69,30 83,36"/>
   <path class="fil0 str0" d="M5629 7545c28,10 71,24 85,29"/>
   <path class="fil0 str0" d="M5711 7481c28,7 73,19 88,23"/>
   <path class="fil0 str0" d="M5787 7410c29,5 74,13 89,16"/>
   <path class="fil0 str0" d="M5858 7334c29,3 75,7 90,9"/>
   <path class="fil0 str0" d="M5922 7252c29,1 75,1 90,2"/>
   <path class="fil0 str0" d="M5980 7166c29,-2 75,-5 90,-6"/>
   <path class="fil0 str0" d="M6031 7075c29,-4 74,-10 90,-13"/>
   <path class="fil0 str0" d="M6074 6981c29,-6 73,-16 88,-20"/>
   <path class="fil0 str0" d="M6110 6883c28,-9 72,-22 86,-26"/>
   <path class="fil0 str0" d="M6138 6783c27,-11 70,-27 84,-33"/>
   <path class="fil0 str0" d="M6159 6681c26,-13 67,-33 81,-40"/>
   <path class="fil0 str0" d="M6171 6577c25,-15 65,-38 78,-46"/>
   <path class="fil0 str0" d="M6175 6474c24,-17 61,-43 74,-52"/>
   <path class="fil0 str0" d="M6171 6370c23,-19 58,-48 70,-57"/>
   <path class="fil0 str0" d="M6159 6266c21,-20 54,-52 65,-63"/>
   <path class="fil0 str0" d="M6138 6164c19,-22 50,-56 60,-68"/>
   <path class="fil0 str0" d="M6110 6064c18,-23 45,-60 54,-72"/>
   <path class="fil0 str0" d="M6074 5966c16,-25 40,-63 49,-76"/>
   <path class="fil0 str0" d="M6031 5872c14,-26 35,-66 42,-80"/>
   <path class="fil0 str0" d="M5980 5781c12,-27 30,-69 36,-83"/>
   <path class="fil0 str0" d="M5922 5695c10,-28 24,-71 29,-85"/>
   <path class="fil0 str0" d="M5858 5613c7,-28 19,-73 23,-88"/>
   <path class="fil0 str0" d="M5787 5537c5,-29 13,-74 16,-89"/>
   <path class="fil0 str0" d="M5711 5466c3,-29 7,-75 9,-90"/>
   <path class="fil0 str0" d="M5629 5402c1,-29 1,-75 2,-90"/>
   <path class="fil0 str0" d="M5542 5344c-2,-29 -5,-75 -6,-90"/>
   <path class="fil0 str0" d="M5452 5293c-4,-29 -10,-74 -13,-90"/>
   <path class="fil0 str0" d="M5357 5249c-6,-29 -16,-73 -20,-88"/>
   <path class="fil0 str0" d="M5259 5213c-9,-28 -22,-72 -26,-86"/>
   <path class="fil0 str0" d="M5159 5185c-11,-27 -27,-70 -33,-84"/>
   <path class="fil0 str0" d="M5057 5165c-13,-26 -33,-67 -40,-81"/>
   <path class="fil0 str0" d="M4954 5153c-15,-25 -38,-65 -46,-78"/>
   <path class="fil0 str0" d="M4850 5149c-17,-24 -43,-61 -52,-74"/>
   <path class="fil0 str0" d="M4746 5153c-19,-23 -48,-58 -57,-70"/>
   <path class="fil0 str0" d="M4643 5165c-20,-21 -52,-54 -63,-65"/>
   <path class="fil0 str0" d="M4541 5185c-22,-19 -56,-50 -68,-60"/>
   <path class="fil0 str0" d="M4441 5213c-23,-18 -60,-45 -72,-54"/>
   <path class="fil0 str0" d="M4343 5249c-25,-16 -63,-40 -76,-49"/>
   <path class="fil0 str0" d="M4248 5293c-26,-14 -66,-35 -80,-42"/>
   <path class="fil0 str0" d="M4158 5344c-27,-12 -69,-30 -83,-36"/>
   <path class="fil0 str0" d="M4071 5402c-28,-10 -71,-24 -85,-29"/>
   <path class="fil0 str0" d="M3989 5466c-28,-7 -73,-19 -88,-23"/>
   <path class="fil0 str0" d="M3913 5537c-29,-5 -74,-13 -89,-16"/>
   <path class="fil0 str0" d="M3842 5613c-29,-3 -75,-7 -90,-9"/>
   <path class="fil0 str0" d="M3778 5695c-29,-1 -75,-1 -90,-2"/>
   <path class="fil0 str0" d="M3720 5781c-29,2 -75,5 -90,6"/>
   <path class="fil0 str0" d="M3669 5872c-29,4 -74,10 -90,13"/>
   <path class="fil0 str0" d="M3626 5966c-29,6 -73,16 -88,20"/>
   <path class="fil0 str0" d="M3590 6064c-28,9 -72,22 -86,26"/>
   <path class="fil0 str0" d="M3562 6164c-27,11 -70,27 -84,33"/>
   <path class="fil0 str0" d="M3541 6266c-26,13 -67,33 -81,40"/>
   <path class="fil0 str0" d="M3529 6370c-25,15 -65,38 -78,46"/>
   <path class="fil0 str0" d="M3525 6474c-24,17 -61,43 -74,52"/>
   <path class="fil0 str0" d="M3529 6577c-23,19 -58,48 -70,57"/>
   <path class="fil0 str0" d="M3541 6681c-21,20 -54,52 -65,63"/>
   <path class="fil0 str0" d="M3562 6783c-19,22 -50,56 -60,68"/>
   <path class="fil0 str0" d="M3590 6883c-18,23 -45,60 -54,72"/>
   <path class="fil0 str0" d="M3626 6981c-16,25 -40,63 -49,76"/>
   <path class="fil0 str0" d="M3669 7075c-14,26 -35,66 -42,80"/>
   <path class="fil0 str0" d="M3720 7166c-12,27 -30,69 -36,83"/>
   <path class="fil0 str0" d="M3778 7252c-10,28 -24,71 -29,85"/>
   <path class="fil0 str0" d="M3842 7334c-7,28 -19,73 -23,88"/>
   <path class="fil0 str0" d="M3913 7410c-5,29 -13,74 -16,89"/>
   <path class="fil0 str0" d="M3989 7481c-3,29 -7,75 -9,90"/>
   <path class="fil0 str0" d="M4071 7545c-1,29 -1,75 -2,90"/>
   <path class="fil0 str0" d="M4158 7603c2,29 5,75 6,90"/>
   <path class="fil0 str0" d="M4248 7654c4,29 10,74 13,90"/>
   <path class="fil0 str0" d="M4343 7698c6,29 16,73 20,88"/>
   <path class="fil0 str0" d="M4441 7734c9,28 22,72 26,86"/>
   <path class="fil0 str0" d="M4541 7762c11,27 27,70 33,84"/>
   <path class="fil0 str0" d="M4643 7782c13,26 33,67 40,81"/>
   <path class="fil0 str0" d="M4746 7794c15,25 38,65 46,78"/>
   <line class="fil0 str0" x1="4815" y1="6474" x2="4815" y2= "5170" />
   <line class="fil0 str0" x1="4815" y1="5170" x2="4885" y2= "5170" />
   <line class="fil0 str0" x1="4885" y1="5170" x2="4885" y2= "6474" />
   <line class="fil0 str0" x1="4885" y1="6474" x2="4815" y2= "6474" />
   <path class="fil0 str0" d="M4792 7872c2,0 4,0 6,0"/>
   <path class="fil0 str0" d="M4682 7863c2,0 4,0 6,1"/>
   <path class="fil0 str0" d="M4574 7846c2,0 4,1 6,1"/>
   <path class="fil0 str0" d="M4467 7820c2,1 4,1 6,2"/>
   <path class="fil0 str0" d="M4363 7786c2,1 4,1 6,2"/>
   <path class="fil0 str0" d="M4261 7744c2,1 4,2 6,3"/>
   <path class="fil0 str0" d="M4163 7693c2,1 4,2 5,3"/>
   <path class="fil0 str0" d="M4070 7636c2,1 3,2 5,3"/>
   <path class="fil0 str0" d="M3981 7571c2,1 3,3 5,4"/>
   <path class="fil0 str0" d="M3897 7499c2,1 3,3 5,4"/>
   <path class="fil0 str0" d="M3820 7422c1,2 3,3 4,5"/>
   <path class="fil0 str0" d="M3749 7338c1,2 3,3 4,5"/>
   <path class="fil0 str0" d="M3684 7249c1,2 2,3 3,5"/>
   <path class="fil0 str0" d="M3627 7155c1,2 2,4 3,5"/>
   <path class="fil0 str0" d="M3577 7057c1,2 2,4 3,6"/>
   <path class="fil0 str0" d="M3535 6955c1,2 1,4 2,6"/>
   <path class="fil0 str0" d="M3502 6851c1,2 1,4 2,6"/>
   <path class="fil0 str0" d="M3476 6744c0,2 1,4 1,6"/>
   <path class="fil0 str0" d="M3459 6635c0,2 0,4 1,6"/>
   <path class="fil0 str0" d="M3451 6525c0,2 0,4 0,6"/>
   <path class="fil0 str0" d="M3451 6415c0,2 0,4 0,6"/>
   <path class="fil0 str0" d="M3460 6306c0,2 0,4 -1,6"/>
   <path class="fil0 str0" d="M3478 6197c0,2 -1,4 -1,6"/>
   <path class="fil0 str0" d="M3503 6090c-1,2 -1,4 -2,6"/>
   <path class="fil0 str0" d="M3538 5986c-1,2 -1,4 -2,6"/>
   <path class="fil0 str0" d="M3580 5885c-1,2 -2,4 -3,6"/>
   <path class="fil0 str0" d="M3630 5787c-1,2 -2,4 -3,5"/>
   <path class="fil0 str0" d="M3688 5693c-1,2 -2,3 -3,5"/>
   <path class="fil0 str0" d="M3752 5604c-1,2 -3,3 -4,5"/>
   <path class="fil0 str0" d="M3824 5521c-1,2 -3,3 -4,5"/>
   <path class="fil0 str0" d="M3902 5443c-2,1 -3,3 -5,4"/>
   <path class="fil0 str0" d="M3986 5372c-2,1 -3,3 -5,4"/>
   <path class="fil0 str0" d="M4075 5308c-2,1 -3,2 -5,3"/>
   <path class="fil0 str0" d="M4169 5251c-2,1 -4,2 -5,3"/>
   <path class="fil0 str0" d="M4267 5201c-2,1 -4,2 -6,3"/>
   <path class="fil0 str0" d="M4368 5159c-2,1 -4,1 -6,2"/>
   <path class="fil0 str0" d="M4473 5125c-2,1 -4,1 -6,2"/>
   <path class="fil0 str0" d="M4580 5100c-2,0 -4,1 -6,1"/>
   <path class="fil0 str0" d="M4689 5083c-2,0 -4,0 -6,1"/>
   <path class="fil0 str0" d="M4798 5074c-2,0 -4,0 -6,0"/>
   <path class="fil0 str0" d="M4908 5075c-2,0 -4,0 -6,0"/>
   <path class="fil0 str0" d="M5018 5084c-2,0 -4,-1 -6,-1"/>
   <path class="fil0 str0" d="M5126 5101c-2,0 -4,-1 -6,-1"/>
   <path class="fil0 str0" d="M5233 5127c-2,-1 -4,-1 -6,-2"/>
   <path class="fil0 str0" d="M5337 5161c-2,-1 -4,-1 -6,-2"/>
   <path class="fil0 str0" d="M5439 5203c-2,-1 -4,-2 -6,-3"/>
   <path class="fil0 str0" d="M5537 5254c-2,-1 -4,-2 -5,-3"/>
   <path class="fil0 str0" d="M5630 5311c-2,-1 -3,-2 -5,-3"/>
   <path class="fil0 str0" d="M5719 5376c-2,-1 -3,-3 -5,-4"/>
   <path class="fil0 str0" d="M5803 5448c-2,-1 -3,-3 -5,-4"/>
   <path class="fil0 str0" d="M5880 5525c-1,-2 -3,-3 -4,-5"/>
   <path class="fil0 str0" d="M5951 5609c-1,-2 -3,-3 -4,-5"/>
   <path class="fil0 str0" d="M6016 5698c-1,-2 -2,-3 -3,-5"/>
   <path class="fil0 str0" d="M6073 5792c-1,-2 -2,-4 -3,-5"/>
   <path class="fil0 str0" d="M6123 5890c-1,-2 -2,-4 -3,-6"/>
   <path class="fil0 str0" d="M6165 5992c-1,-2 -1,-4 -2,-6"/>
   <path class="fil0 str0" d="M6198 6097c-1,-2 -1,-4 -2,-6"/>
   <path class="fil0 str0" d="M6224 6203c0,-2 -1,-4 -1,-6"/>
   <path class="fil0 str0" d="M6241 6312c0,-2 0,-4 -1,-6"/>
   <path class="fil0 str0" d="M6249 6422c0,-2 0,-4 0,-6"/>
   <path class="fil0 str0" d="M6249 6532c0,-2 0,-4 0,-6"/>
   <path class="fil0 str0" d="M6240 6641c0,-2 0,-4 1,-6"/>
   <path class="fil0 str0" d="M6222 6750c0,-2 1,-4 1,-6"/>
   <path class="fil0 str0" d="M6197 6857c1,-2 1,-4 2,-6"/>
   <path class="fil0 str0" d="M6162 6961c1,-2 1,-4 2,-6"/>
   <path class="fil0 str0" d="M6120 7062c1,-2 2,-4 3,-6"/>
   <path class="fil0 str0" d="M6070 7160c1,-2 2,-4 3,-5"/>
   <path class="fil0 str0" d="M6012 7254c1,-2 2,-3 3,-5"/>
   <path class="fil0 str0" d="M5948 7343c1,-2 3,-3 4,-5"/>
   <path class="fil0 str0" d="M5876 7426c1,-2 3,-3 4,-5"/>
   <path class="fil0 str0" d="M5798 7504c2,-1 3,-3 5,-4"/>
   <path class="fil0 str0" d="M5714 7575c2,-1 3,-3 5,-4"/>
   <path class="fil0 str0" d="M5625 7639c2,-1 3,-2 5,-3"/>
   <path class="fil0 str0" d="M5531 7697c2,-1 4,-2 5,-3"/>
   <path class="fil0 str0" d="M5433 7746c2,-1 4,-2 6,-3"/>
   <path class="fil0 str0" d="M5332 7788c2,-1 4,-1 6,-2"/>
   <path class="fil0 str0" d="M5227 7822c2,-1 4,-1 6,-2"/>
   <path class="fil0 str0" d="M5120 7847c2,0 4,-1 6,-1"/>
   <path class="fil0 str0" d="M5011 7864c2,0 4,0 6,-1"/>
   <path class="fil0 str0" d="M4902 7873c2,0 4,0 6,0"/>
   <path class="fil0 str0" d="M4815 5174c-711,19 -1274,606 -1265,1317 10,711 589,1283 1300,1283 711,0 1290,-571 1300,-1282 10,-711 -554,-1298 -1265,-1317"/>
   <path class="fil0 str0" d="M25951 7338c-10,-29 -25,-72 -29,-85"/>
   <path class="fil0 str0" d="M25803 7499c-5,-30 -13,-75 -16,-89"/>
   <path class="fil0 str0" d="M25880 7422c-8,-30 -19,-73 -23,-88"/>
   <path class="fil0 str0" d="M26016 7249c-12,-28 -30,-69 -36,-83"/>
   <path class="fil0 str0" d="M26073 7155c-15,-27 -36,-67 -42,-80"/>
   <path class="fil0 str0" d="M26123 7057c-17,-26 -41,-64 -49,-76"/>
   <path class="fil0 str0" d="M26165 6955c-19,-25 -46,-60 -54,-72"/>
   <path class="fil0 str0" d="M26198 6851c-21,-23 -50,-57 -60,-68"/>
   <path class="fil0 str0" d="M26224 6744c-22,-22 -54,-53 -65,-63"/>
   <path class="fil0 str0" d="M26241 6635c-24,-20 -58,-48 -70,-57"/>
   <path class="fil0 str0" d="M26249 6525c-25,-18 -62,-43 -74,-52"/>
   <path class="fil0 str0" d="M26249 6415c-27,-16 -65,-38 -78,-46"/>
   <path class="fil0 str0" d="M26240 6306c-28,-14 -68,-33 -81,-40"/>
   <path class="fil0 str0" d="M26222 6197c-29,-11 -70,-28 -84,-33"/>
   <path class="fil0 str0" d="M26197 6090c-30,-9 -72,-22 -86,-26"/>
   <path class="fil0 str0" d="M26162 5986c-30,-7 -74,-16 -88,-20"/>
   <path class="fil0 str0" d="M26120 5885c-31,-4 -75,-11 -90,-13"/>
   <path class="fil0 str0" d="M26070 5787c-31,-2 -76,-5 -90,-6"/>
   <path class="fil0 str0" d="M26012 5693c-31,1 -76,1 -90,2"/>
   <path class="fil0 str0" d="M25948 5604c-31,3 -75,7 -90,9"/>
   <path class="fil0 str0" d="M25876 5521c-30,5 -75,13 -89,16"/>
   <path class="fil0 str0" d="M25798 5443c-30,8 -73,19 -88,23"/>
   <path class="fil0 str0" d="M25714 5372c-29,10 -72,25 -85,29"/>
   <path class="fil0 str0" d="M25625 5308c-28,12 -69,30 -83,36"/>
   <path class="fil0 str0" d="M25531 5251c-27,15 -67,36 -80,42"/>
   <path class="fil0 str0" d="M25433 5201c-26,17 -64,41 -76,49"/>
   <path class="fil0 str0" d="M25332 5159c-25,19 -60,46 -72,54"/>
   <path class="fil0 str0" d="M25227 5125c-23,21 -57,50 -68,60"/>
   <path class="fil0 str0" d="M25120 5100c-22,22 -53,54 -63,65"/>
   <path class="fil0 str0" d="M25011 5083c-20,24 -48,58 -57,70"/>
   <path class="fil0 str0" d="M24902 5074c-18,25 -43,62 -52,74"/>
   <path class="fil0 str0" d="M24792 5075c-16,27 -38,65 -46,78"/>
   <path class="fil0 str0" d="M24682 5084c-14,28 -33,68 -40,81"/>
   <path class="fil0 str0" d="M24574 5101c-11,29 -28,70 -33,84"/>
   <path class="fil0 str0" d="M24467 5127c-9,30 -22,72 -26,86"/>
   <path class="fil0 str0" d="M24363 5161c-7,30 -16,74 -20,88"/>
   <path class="fil0 str0" d="M24261 5203c-4,31 -11,75 -13,90"/>
   <path class="fil0 str0" d="M24163 5254c-2,31 -5,76 -6,90"/>
   <path class="fil0 str0" d="M24070 5311c1,31 1,76 2,90"/>
   <path class="fil0 str0" d="M23981 5376c3,31 7,75 9,90"/>
   <path class="fil0 str0" d="M23897 5448c5,30 13,75 16,89"/>
   <path class="fil0 str0" d="M23820 5525c8,30 19,73 23,88"/>
   <path class="fil0 str0" d="M23749 5609c10,29 25,72 29,85"/>
   <path class="fil0 str0" d="M23684 5698c12,28 30,69 36,83"/>
   <path class="fil0 str0" d="M23627 5792c15,27 36,67 42,80"/>
   <path class="fil0 str0" d="M23577 5890c17,26 41,64 49,76"/>
   <path class="fil0 str0" d="M23535 5992c19,25 46,60 54,72"/>
   <path class="fil0 str0" d="M23502 6097c21,23 50,57 60,68"/>
   <path class="fil0 str0" d="M23476 6203c22,22 54,53 65,63"/>
   <path class="fil0 str0" d="M23459 6312c24,20 58,48 70,57"/>
   <path class="fil0 str0" d="M23451 6422c25,18 62,43 74,52"/>
   <path class="fil0 str0" d="M23451 6532c27,16 65,38 78,46"/>
   <path class="fil0 str0" d="M23460 6641c28,14 68,33 81,40"/>
   <path class="fil0 str0" d="M23478 6750c29,11 70,28 84,33"/>
   <path class="fil0 str0" d="M23503 6857c30,9 72,22 86,26"/>
   <path class="fil0 str0" d="M23538 6961c30,7 74,16 88,20"/>
   <path class="fil0 str0" d="M23580 7062c31,4 75,11 90,13"/>
   <path class="fil0 str0" d="M23630 7160c31,2 76,5 90,6"/>
   <path class="fil0 str0" d="M23688 7254c31,-1 76,-1 90,-2"/>
   <path class="fil0 str0" d="M23752 7343c31,-3 75,-7 90,-9"/>
   <path class="fil0 str0" d="M23824 7426c30,-5 75,-13 89,-16"/>
   <path class="fil0 str0" d="M23902 7504c30,-8 73,-19 88,-23"/>
   <path class="fil0 str0" d="M23986 7575c29,-10 72,-25 85,-29"/>
   <path class="fil0 str0" d="M24075 7639c28,-12 69,-30 83,-36"/>
   <path class="fil0 str0" d="M24169 7697c27,-15 67,-36 80,-42"/>
   <path class="fil0 str0" d="M24267 7746c26,-17 64,-41 76,-49"/>
   <path class="fil0 str0" d="M24368 7788c25,-19 60,-46 72,-54"/>
   <path class="fil0 str0" d="M24473 7822c23,-21 57,-50 68,-60"/>
   <path class="fil0 str0" d="M24580 7847c22,-22 53,-54 63,-65"/>
   <path class="fil0 str0" d="M24689 7864c20,-24 48,-58 57,-70"/>
   <path class="fil0 str0" d="M24798 7873c18,-25 43,-62 52,-74"/>
   <path class="fil0 str0" d="M24908 7872c16,-27 38,-65 46,-78"/>
   <path class="fil0 str0" d="M25018 7863c14,-28 33,-68 40,-81"/>
   <path class="fil0 str0" d="M25126 7846c11,-29 28,-70 33,-84"/>
   <path class="fil0 str0" d="M25233 7820c9,-30 22,-72 26,-86"/>
   <path class="fil0 str0" d="M25337 7786c7,-30 16,-74 20,-88"/>
   <path class="fil0 str0" d="M25439 7744c4,-31 11,-75 13,-90"/>
   <path class="fil0 str0" d="M25537 7693c2,-31 5,-76 6,-90"/>
   <path class="fil0 str0" d="M25630 7636c-1,-31 -1,-76 -2,-90"/>
   <path class="fil0 str0" d="M25719 7571c-3,-31 -7,-75 -9,-90"/>
   <path class="fil0 str0" d="M25787 7410c29,5 74,13 89,16"/>
   <path class="fil0 str0" d="M25858 7334c29,3 75,7 90,9"/>
   <path class="fil0 str0" d="M25922 7252c29,1 75,1 90,2"/>
   <path class="fil0 str0" d="M25980 7166c29,-2 75,-5 90,-6"/>
   <path class="fil0 str0" d="M26031 7075c29,-4 74,-10 90,-13"/>
   <path class="fil0 str0" d="M26074 6981c29,-6 73,-16 88,-20"/>
   <path class="fil0 str0" d="M26110 6883c28,-9 72,-22 86,-26"/>
   <path class="fil0 str0" d="M26138 6783c27,-11 70,-27 84,-33"/>
   <path class="fil0 str0" d="M26159 6681c26,-13 67,-33 81,-40"/>
   <path class="fil0 str0" d="M26171 6577c25,-15 65,-38 78,-46"/>
   <path class="fil0 str0" d="M26175 6474c24,-17 61,-43 74,-52"/>
   <path class="fil0 str0" d="M26171 6370c23,-19 58,-48 70,-57"/>
   <path class="fil0 str0" d="M26159 6266c21,-20 54,-52 65,-63"/>
   <path class="fil0 str0" d="M26138 6164c19,-22 50,-56 60,-68"/>
   <path class="fil0 str0" d="M26110 6064c18,-23 45,-60 54,-72"/>
   <path class="fil0 str0" d="M26074 5966c16,-25 40,-63 49,-76"/>
   <path class="fil0 str0" d="M26031 5872c14,-26 35,-66 42,-80"/>
   <path class="fil0 str0" d="M25980 5781c12,-27 30,-69 36,-83"/>
   <path class="fil0 str0" d="M25922 5695c10,-28 24,-71 29,-85"/>
   <path class="fil0 str0" d="M25858 5613c7,-28 19,-73 23,-88"/>
   <path class="fil0 str0" d="M25787 5537c5,-29 13,-74 16,-89"/>
   <path class="fil0 str0" d="M25711 5466c3,-29 7,-75 9,-90"/>
   <path class="fil0 str0" d="M25629 5402c1,-29 1,-75 2,-90"/>
   <path class="fil0 str0" d="M25542 5344c-2,-29 -5,-75 -6,-90"/>
   <path class="fil0 str0" d="M25452 5293c-4,-29 -10,-74 -13,-90"/>
   <path class="fil0 str0" d="M25357 5249c-6,-29 -16,-73 -20,-88"/>
   <path class="fil0 str0" d="M25259 5213c-9,-28 -22,-72 -26,-86"/>
   <path class="fil0 str0" d="M25159 5185c-11,-27 -27,-70 -33,-84"/>
   <path class="fil0 str0" d="M25057 5165c-13,-26 -33,-67 -40,-81"/>
   <path class="fil0 str0" d="M24954 5153c-15,-25 -38,-65 -46,-78"/>
   <path class="fil0 str0" d="M24850 5149c-17,-24 -43,-61 -52,-74"/>
   <path class="fil0 str0" d="M24746 5153c-19,-23 -48,-58 -57,-70"/>
   <path class="fil0 str0" d="M24643 5165c-20,-21 -52,-54 -63,-65"/>
   <path class="fil0 str0" d="M24541 5185c-22,-19 -56,-50 -68,-60"/>
   <path class="fil0 str0" d="M24441 5213c-23,-18 -60,-45 -72,-54"/>
   <path class="fil0 str0" d="M24343 5249c-25,-16 -63,-40 -76,-49"/>
   <path class="fil0 str0" d="M24248 5293c-26,-14 -66,-35 -80,-42"/>
   <path class="fil0 str0" d="M24158 5344c-27,-12 -69,-30 -83,-36"/>
   <path class="fil0 str0" d="M24071 5402c-28,-10 -71,-24 -85,-29"/>
   <path class="fil0 str0" d="M23989 5466c-28,-7 -73,-19 -88,-23"/>
   <path class="fil0 str0" d="M23913 5537c-29,-5 -74,-13 -89,-16"/>
   <path class="fil0 str0" d="M23842 5613c-29,-3 -75,-7 -90,-9"/>
   <path class="fil0 str0" d="M23778 5695c-29,-1 -75,-1 -90,-2"/>
   <path class="fil0 str0" d="M23720 5781c-29,2 -75,5 -90,6"/>
   <path class="fil0 str0" d="M23669 5872c-29,4 -74,10 -90,13"/>
   <path class="fil0 str0" d="M23626 5966c-29,6 -73,16 -88,20"/>
   <path class="fil0 str0" d="M23590 6064c-28,9 -72,22 -86,26"/>
   <path class="fil0 str0" d="M23562 6164c-27,11 -70,27 -84,33"/>
   <path class="fil0 str0" d="M23541 6266c-26,13 -67,33 -81,40"/>
   <path class="fil0 str0" d="M23529 6370c-25,15 -65,38 -78,46"/>
   <path class="fil0 str0" d="M23525 6474c-24,17 -61,43 -74,52"/>
   <path class="fil0 str0" d="M23529 6577c-23,19 -58,48 -70,57"/>
   <path class="fil0 str0" d="M23541 6681c-21,20 -54,52 -65,63"/>
   <path class="fil0 str0" d="M23562 6783c-19,22 -50,56 -60,68"/>
   <path class="fil0 str0" d="M23590 6883c-18,23 -45,60 -54,72"/>
   <path class="fil0 str0" d="M23626 6981c-16,25 -40,63 -49,76"/>
   <path class="fil0 str0" d="M23669 7075c-14,26 -35,66 -42,80"/>
   <path class="fil0 str0" d="M23720 7166c-12,27 -30,69 -36,83"/>
   <path class="fil0 str0" d="M23778 7252c-10,28 -24,71 -29,85"/>
   <path class="fil0 str0" d="M23842 7334c-7,28 -19,73 -23,88"/>
   <path class="fil0 str0" d="M23913 7410c-5,29 -13,74 -16,89"/>
   <path class="fil0 str0" d="M23989 7481c-3,29 -7,75 -9,90"/>
   <path class="fil0 str0" d="M24071 7545c-1,29 -1,75 -2,90"/>
   <path class="fil0 str0" d="M24158 7603c2,29 5,75 6,90"/>
   <path class="fil0 str0" d="M24248 7654c4,29 10,74 13,90"/>
   <path class="fil0 str0" d="M24343 7698c6,29 16,73 20,88"/>
   <path class="fil0 str0" d="M24441 7734c9,28 22,72 26,86"/>
   <path class="fil0 str0" d="M24541 7762c11,27 27,70 33,84"/>
   <path class="fil0 str0" d="M24643 7782c13,26 33,67 40,81"/>
   <path class="fil0 str0" d="M24746 7794c15,25 38,65 46,78"/>
   <path class="fil0 str0" d="M24850 7799c17,24 43,61 52,74"/>
   <path class="fil0 str0" d="M24954 7794c19,23 48,58 57,70"/>
   <path class="fil0 str0" d="M25057 7782c20,21 52,54 63,65"/>
   <path class="fil0 str0" d="M25159 7762c22,19 56,50 68,60"/>
   <path class="fil0 str0" d="M25259 7734c23,18 60,45 72,54"/>
   <path class="fil0 str0" d="M25357 7698c25,16 63,40 76,49"/>
   <path class="fil0 str0" d="M25452 7654c26,14 66,35 80,42"/>
   <path class="fil0 str0" d="M25542 7603c27,12 69,30 83,36"/>
   <path class="fil0 str0" d="M25629 7545c28,10 71,24 85,29"/>
   <path class="fil0 str0" d="M25711 7481c28,7 73,19 88,23"/>
   <line class="fil0 str0" x1="24825" y1="6498" x2="23903" y2= "5576" />
   <line class="fil0 str0" x1="23903" y1="5576" x2="23953" y2= "5527" />
   <line class="fil0 str0" x1="23953" y1="5527" x2="24875" y2= "6449" />
   <line class="fil0 str0" x1="24875" y1="6449" x2="24825" y2= "6498" />
   <path class="fil0 str0" d="M25798 7504c2,-1 3,-3 5,-4"/>
   <path class="fil0 str0" d="M25714 7575c2,-1 3,-3 5,-4"/>
   <path class="fil0 str0" d="M25625 7639c2,-1 3,-2 5,-3"/>
   <path class="fil0 str0" d="M25531 7697c2,-1 4,-2 5,-3"/>
   <path class="fil0 str0" d="M25433 7746c2,-1 4,-2 6,-3"/>
   <path class="fil0 str0" d="M25332 7788c2,-1 4,-1 6,-2"/>
   <path class="fil0 str0" d="M25227 7822c2,-1 4,-1 6,-2"/>
   <path class="fil0 str0" d="M25120 7847c2,0 4,-1 6,-1"/>
   <path class="fil0 str0" d="M25011 7864c2,0 4,0 6,-1"/>
   <path class="fil0 str0" d="M24902 7873c2,0 4,0 6,0"/>
   <path class="fil0 str0" d="M24792 7872c2,0 4,0 6,0"/>
   <path class="fil0 str0" d="M24682 7863c2,0 4,0 6,1"/>
   <path class="fil0 str0" d="M24574 7846c2,0 4,1 6,1"/>
   <path class="fil0 str0" d="M24467 7820c2,1 4,1 6,2"/>
   <path class="fil0 str0" d="M24363 7786c2,1 4,1 6,2"/>
   <path class="fil0 str0" d="M24261 7744c2,1 4,2 6,3"/>
   <path class="fil0 str0" d="M24163 7693c2,1 4,2 5,3"/>
   <path class="fil0 str0" d="M24070 7636c2,1 3,2 5,3"/>
   <path class="fil0 str0" d="M23981 7571c2,1 3,3 5,4"/>
   <path class="fil0 str0" d="M23897 7499c2,1 3,3 5,4"/>
   <path class="fil0 str0" d="M23820 7422c1,2 3,3 4,5"/>
   <path class="fil0 str0" d="M23749 7338c1,2 3,3 4,5"/>
   <path class="fil0 str0" d="M23684 7249c1,2 2,3 3,5"/>
   <path class="fil0 str0" d="M23627 7155c1,2 2,4 3,5"/>
   <path class="fil0 str0" d="M23577 7057c1,2 2,4 3,6"/>
   <path class="fil0 str0" d="M23535 6955c1,2 1,4 2,6"/>
   <path class="fil0 str0" d="M23502 6851c1,2 1,4 2,6"/>
   <path class="fil0 str0" d="M23476 6744c0,2 1,4 1,6"/>
   <path class="fil0 str0" d="M23459 6635c0,2 0,4 1,6"/>
   <path class="fil0 str0" d="M23451 6525c0,2 0,4 0,6"/>
   <path class="fil0 str0" d="M23451 6415c0,2 0,4 0,6"/>
   <path class="fil0 str0" d="M23460 6306c0,2 0,4 -1,6"/>
   <path class="fil0 str0" d="M23478 6197c0,2 -1,4 -1,6"/>
   <path class="fil0 str0" d="M23503 6090c-1,2 -1,4 -2,6"/>
   <path class="fil0 str0" d="M23538 5986c-1,2 -1,4 -2,6"/>
   <path class="fil0 str0" d="M23580 5885c-1,2 -2,4 -3,6"/>
   <path class="fil0 str0" d="M23630 5787c-1,2 -2,4 -3,5"/>
   <path class="fil0 str0" d="M23688 5693c-1,2 -2,3 -3,5"/>
   <path class="fil0 str0" d="M23752 5604c-1,2 -3,3 -4,5"/>
   <path class="fil0 str0" d="M23824 5521c-1,2 -3,3 -4,5"/>
   <path class="fil0 str0" d="M23902 5443c-2,1 -3,3 -5,4"/>
   <path class="fil0 str0" d="M23986 5372c-2,1 -3,3 -5,4"/>
   <path class="fil0 str0" d="M24075 5308c-2,1 -3,2 -5,3"/>
   <path class="fil0 str0" d="M24169 5251c-2,1 -4,2 -5,3"/>
   <path class="fil0 str0" d="M24267 5201c-2,1 -4,2 -6,3"/>
   <path class="fil0 str0" d="M24368 5159c-2,1 -4,1 -6,2"/>
   <path class="fil0 str0" d="M24473 5125c-2,1 -4,1 -6,2"/>
   <path class="fil0 str0" d="M24580 5100c-2,0 -4,1 -6,1"/>
   <path class="fil0 str0" d="M24689 5083c-2,0 -4,0 -6,1"/>
   <path class="fil0 str0" d="M24798 5074c-2,0 -4,0 -6,0"/>
   <path class="fil0 str0" d="M24908 5075c-2,0 -4,0 -6,0"/>
   <path class="fil0 str0" d="M25018 5084c-2,0 -4,-1 -6,-1"/>
   <path class="fil0 str0" d="M25126 5101c-2,0 -4,-1 -6,-1"/>
   <path class="fil0 str0" d="M25233 5127c-2,-1 -4,-1 -6,-2"/>
   <path class="fil0 str0" d="M25337 5161c-2,-1 -4,-1 -6,-2"/>
   <path class="fil0 str0" d="M25439 5203c-2,-1 -4,-2 -6,-3"/>
   <path class="fil0 str0" d="M25537 5254c-2,-1 -4,-2 -5,-3"/>
   <path class="fil0 str0" d="M25630 5311c-2,-1 -3,-2 -5,-3"/>
   <path class="fil0 str0" d="M25719 5376c-2,-1 -3,-3 -5,-4"/>
   <path class="fil0 str0" d="M25803 5448c-2,-1 -3,-3 -5,-4"/>
   <path class="fil0 str0" d="M25880 5525c-1,-2 -3,-3 -4,-5"/>
   <path class="fil0 str0" d="M25951 5609c-1,-2 -3,-3 -4,-5"/>
   <path class="fil0 str0" d="M26016 5698c-1,-2 -2,-3 -3,-5"/>
   <path class="fil0 str0" d="M26073 5792c-1,-2 -2,-4 -3,-5"/>
   <path class="fil0 str0" d="M26123 5890c-1,-2 -2,-4 -3,-6"/>
   <path class="fil0 str0" d="M26165 5992c-1,-2 -1,-4 -2,-6"/>
   <path class="fil0 str0" d="M26198 6097c-1,-2 -1,-4 -2,-6"/>
   <path class="fil0 str0" d="M26224 6203c0,-2 -1,-4 -1,-6"/>
   <path class="fil0 str0" d="M26241 6312c0,-2 0,-4 -1,-6"/>
   <path class="fil0 str0" d="M26249 6422c0,-2 0,-4 0,-6"/>
   <path class="fil0 str0" d="M26249 6532c0,-2 0,-4 0,-6"/>
   <path class="fil0 str0" d="M26240 6641c0,-2 0,-4 1,-6"/>
   <path class="fil0 str0" d="M26222 6750c0,-2 1,-4 1,-6"/>
   <path class="fil0 str0" d="M26197 6857c1,-2 1,-4 2,-6"/>
   <path class="fil0 str0" d="M26162 6961c1,-2 1,-4 2,-6"/>
   <path class="fil0 str0" d="M26120 7062c1,-2 2,-4 3,-6"/>
   <path class="fil0 str0" d="M26070 7160c1,-2 2,-4 3,-5"/>
   <path class="fil0 str0" d="M26012 7254c1,-2 2,-3 3,-5"/>
   <path class="fil0 str0" d="M25948 7343c1,-2 3,-3 4,-5"/>
   <path class="fil0 str0" d="M25876 7426c1,-2 3,-3 4,-5"/>
   <path class="fil0 str0" d="M23906 5579c-489,516 -473,1330 37,1826 510,496 1323,491 1826,-12 503,-503 508,-1316 12,-1826 -496,-510 -1309,-526 -1826,-37"/>
   <path class="fil0 str0" d="M15000 5458c0,-83 -67,-150 -150,-150 -83,0 -150,67 -150,150 0,83 67,150 150,150 83,0 150,-67 150,-150z"/>
   <path class="fil0 str0" d="M15000 5966c0,-83 -67,-150 -150,-150 -83,0 -150,67 -150,150 0,83 67,150 150,150 83,0 150,-67 150,-150z"/>
   <path class="fil0 str0" d="M15000 6474c0,-83 -67,-150 -150,-150 -83,0 -150,67 -150,150 0,83 67,150 150,150 83,0 150,-67 150,-150z"/>
   <path class="fil0 str0" d="M15000 6982c0,-83 -67,-150 -150,-150 -83,0 -150,67 -150,150 0,83 67,150 150,150 83,0 150,-67 150,-150z"/>
   <path class="fil0 str0" d="M15000 7490c0,-83 -67,-150 -150,-150 -83,0 -150,67 -150,150 0,83 67,150 150,150 83,0 150,-67 150,-150z"/>
   <path class="fil0 str0" d="M7640 6474c0,-138 -112,-250 -250,-250 -138,0 -250,112 -250,250 0,138 112,250 250,250 138,0 250,-112 250,-250z"/>
   <path class="fil0 str0" d="M3095 4494c0,7 -2,14 -5,20 -3,6 -8,12 -13,15 -5,4 -11,7 -17,8"/>
   <path class="fil0 str0" d="M3060 4537c-6,1 -12,3 -17,6 -6,3 -13,7 -19,13 -6,5 -11,12 -15,18 -4,7 -7,14 -9,22 -2,8 -2,16 -2,23 0,6 1,12 3,18"/>
   <path class="fil0 str0" d="M3003 4637c2,6 2,13 1,19 -1,6 -3,13 -7,19 -4,6 -9,11 -15,14"/>
   <path class="fil0 str0" d="M2983 4688c70,-40 113,-114 113,-195"/>
   <path class="fil0 str0" d="M2983 4299c6,3 11,8 15,14 4,6 6,12 7,19 1,6 0,13 -1,19"/>
   <path class="fil0 str0" d="M3003 4351c-2,6 -3,12 -3,18 0,7 0,15 2,23 2,8 5,15 9,22 4,7 9,13 15,18 6,5 12,10 19,13 5,3 11,5 17,6"/>
   <path class="fil0 str0" d="M3060 4450c6,1 12,4 17,8 5,4 10,9 13,15 3,6 5,13 5,20"/>
   <path class="fil0 str0" d="M3095 4494c0,-80 -43,-155 -113,-195"/>
   <path class="fil0 str0" d="M2758 4299c6,-3 13,-6 20,-6 7,0 14,1 20,3 6,2 11,6 16,11"/>
   <path class="fil0 str0" d="M2813 4307c4,4 9,8 14,12 6,4 13,7 20,10 8,2 16,4 23,4 8,0 16,-1 23,-4 8,-2 15,-6 20,-10 5,-3 9,-7 14,-12"/>
   <path class="fil0 str0" d="M2927 4307c4,-5 10,-8 16,-11 6,-2 13,-4 20,-3 7,0 14,3 20,6"/>
   <path class="fil0 str0" d="M2983 4299c-70,-40 -155,-40 -225,0"/>
   <path class="fil0 str0" d="M2737 4351c-2,-6 -2,-13 -1,-19 1,-6 3,-13 7,-19 4,-6 9,-11 15,-14"/>
   <path class="fil0 str0" d="M2758 4299c-70,40 -113,114 -113,195"/>
   <path class="fil0 str0" d="M2645 4494c0,-7 2,-14 5,-20 3,-6 8,-12 13,-15 5,-4 11,-7 17,-8"/>
   <path class="fil0 str0" d="M2680 4450c6,-1 12,-3 17,-6 6,-3 13,-7 19,-13 6,-5 11,-12 15,-18 4,-7 7,-14 9,-22 2,-8 2,-16 2,-23 0,-6 -1,-12 -3,-18"/>
   <path class="fil0 str0" d="M2680 4537c-6,-1 -12,-4 -17,-8 -5,-4 -10,-9 -13,-15 -3,-6 -5,-13 -5,-20"/>
   <path class="fil0 str0" d="M2645 4494c0,80 43,155 113,195"/>
   <path class="fil0 str0" d="M2758 4688c-6,-3 -11,-8 -15,-14 -4,-6 -6,-12 -7,-19 -1,-6 0,-13 1,-19"/>
   <path class="fil0 str0" d="M2737 4637c2,-6 3,-12 3,-18 0,-7 0,-15 -2,-23 -2,-8 -5,-15 -9,-22 -4,-7 -9,-13 -15,-18 -6,-5 -12,-10 -19,-13 -5,-3 -11,-5 -17,-6"/>
   <path class="fil0 str0" d="M2813 4680c-4,5 -10,8 -16,11 -6,2 -13,4 -20,3 -7,0 -14,-3 -20,-6"/>
   <path class="fil0 str0" d="M2758 4688c70,40 155,40 225,0"/>
   <path class="fil0 str0" d="M2983 4688c-6,3 -13,6 -20,6 -7,0 -14,-1 -20,-3 -6,-2 -11,-6 -16,-11"/>
   <path class="fil0 str0" d="M2927 4680c-4,-4 -9,-8 -14,-11 -6,-4 -13,-7 -20,-10 -8,-2 -16,-4 -23,-4 -8,0 -16,1 -23,4 -8,2 -15,6 -20,10 -5,3 -9,7 -14,11"/>
   <path class="fil0 str0" d="M3335 4494c0,-257 -208,-465 -465,-465 -257,0 -465,208 -465,465 0,257 208,465 465,465 257,0 465,-208 465,-465z"/>
   <path class="fil0 str0" d="M2645 8454c0,-7 2,-14 5,-20 3,-6 8,-12 13,-15 5,-4 11,-7 17,-8"/>
   <path class="fil0 str0" d="M2680 8410c6,-1 12,-3 17,-6 6,-3 13,-7 19,-13 6,-5 11,-12 15,-18 4,-7 7,-14 9,-22 2,-8 2,-16 2,-23 0,-6 -1,-12 -3,-18"/>
   <path class="fil0 str0" d="M2737 8311c-2,-6 -2,-13 -1,-19 1,-6 3,-13 7,-19 4,-6 9,-11 15,-14"/>
   <path class="fil0 str0" d="M2758 8259c-70,40 -113,114 -113,195"/>
   <path class="fil0 str0" d="M2758 8648c-6,-3 -11,-8 -15,-14 -4,-6 -6,-12 -7,-19 -1,-6 0,-13 1,-19"/>
   <path class="fil0 str0" d="M2737 8597c2,-6 3,-12 3,-18 0,-7 0,-15 -2,-23 -2,-8 -5,-15 -9,-22 -4,-7 -9,-13 -15,-18 -6,-5 -12,-10 -19,-13 -5,-3 -11,-5 -17,-6"/>
   <path class="fil0 str0" d="M2680 8497c-6,-1 -12,-4 -17,-8 -5,-4 -10,-9 -13,-15 -3,-6 -5,-13 -5,-20"/>
   <path class="fil0 str0" d="M2645 8454c0,80 43,155 113,195"/>
   <path class="fil0 str0" d="M2983 8648c-6,3 -13,6 -20,6 -7,0 -14,-1 -20,-3 -6,-2 -11,-6 -16,-11"/>
   <path class="fil0 str0" d="M2927 8640c-4,-4 -9,-8 -14,-11 -6,-4 -13,-7 -20,-10 -8,-2 -16,-4 -23,-4 -8,0 -16,1 -23,4 -8,2 -15,6 -20,10 -5,3 -9,7 -14,11"/>
   <path class="fil0 str0" d="M2813 8640c-4,5 -10,8 -16,11 -6,2 -13,4 -20,3 -7,0 -14,-3 -20,-6"/>
   <path class="fil0 str0" d="M2758 8648c70,40 155,40 225,0"/>
   <path class="fil0 str0" d="M3003 8597c2,6 2,13 1,19 -1,6 -3,13 -7,19 -4,6 -9,11 -15,14"/>
   <path class="fil0 str0" d="M2983 8648c70,-40 113,-114 113,-195"/>
   <path class="fil0 str0" d="M3095 8454c0,7 -2,14 -5,20 -3,6 -8,12 -13,15 -5,4 -11,7 -17,8"/>
   <path class="fil0 str0" d="M3060 8497c-6,1 -12,3 -17,6 -6,3 -13,7 -19,13 -6,5 -11,12 -15,18 -4,7 -7,14 -9,22 -2,8 -2,16 -2,23 0,6 1,12 3,18"/>
   <path class="fil0 str0" d="M3060 8410c6,1 12,4 17,8 5,4 10,9 13,15 3,6 5,13 5,20"/>
   <path class="fil0 str0" d="M3095 8454c0,-80 -43,-155 -113,-195"/>
   <path class="fil0 str0" d="M2983 8259c6,3 11,8 15,14 4,6 6,12 7,19 1,6 0,13 -1,19"/>
   <path class="fil0 str0" d="M3003 8311c-2,6 -3,12 -3,18 0,7 0,15 2,23 2,8 5,15 9,22 4,7 9,13 15,18 6,5 12,10 19,13 5,3 11,5 17,6"/>
   <path class="fil0 str0" d="M2927 8267c4,-5 10,-8 16,-11 6,-2 13,-4 20,-3 7,0 14,3 20,6"/>
   <path class="fil0 str0" d="M2983 8259c-70,-40 -155,-40 -225,0"/>
   <path class="fil0 str0" d="M2758 8259c6,-3 13,-6 20,-6 7,0 14,1 20,3 6,2 11,6 16,11"/>
   <path class="fil0 str0" d="M2813 8267c4,4 9,8 14,12 6,4 13,7 20,10 8,2 16,4 23,4 8,0 16,-1 23,-4 8,-2 15,-6 20,-10 5,-3 9,-7 14,-12"/>
   <path class="fil0 str0" d="M3335 8454c0,-257 -208,-465 -465,-465 -257,0 -465,208 -465,465 0,257 208,465 465,465 257,0 465,-208 465,-465z"/>
   <path class="fil0 str0" d="M26605 4494c0,-7 2,-14 5,-20 3,-6 8,-12 13,-15 5,-4 11,-7 17,-8"/>
   <path class="fil0 str0" d="M26640 4450c6,-1 12,-3 17,-6 6,-3 13,-7 19,-13 6,-5 11,-12 15,-18 4,-7 7,-14 9,-22 2,-8 2,-16 2,-23 0,-6 -1,-12 -3,-18"/>
   <path class="fil0 str0" d="M26697 4351c-2,-6 -2,-13 -1,-19 1,-6 3,-13 7,-19 4,-6 9,-11 15,-14"/>
   <path class="fil0 str0" d="M26718 4299c-70,40 -113,114 -113,195"/>
   <path class="fil0 str0" d="M26718 4688c-6,-3 -11,-8 -15,-14 -4,-6 -6,-12 -7,-19 -1,-6 0,-13 1,-19"/>
   <path class="fil0 str0" d="M26697 4637c2,-6 3,-12 3,-18 0,-7 0,-15 -2,-23 -2,-8 -5,-15 -9,-22 -4,-7 -9,-13 -15,-18 -6,-5 -12,-10 -19,-13 -5,-3 -11,-5 -17,-6"/>
   <path class="fil0 str0" d="M26640 4537c-6,-1 -12,-4 -17,-8 -5,-4 -10,-9 -13,-15 -3,-6 -5,-13 -5,-20"/>
   <path class="fil0 str0" d="M26605 4494c0,80 43,155 113,195"/>
   <path class="fil0 str0" d="M26943 4688c-6,3 -13,6 -20,6 -7,0 -14,-1 -20,-3 -6,-2 -11,-6 -16,-11"/>
   <path class="fil0 str0" d="M26887 4680c-4,-4 -9,-8 -14,-11 -6,-4 -13,-7 -20,-10 -8,-2 -16,-4 -23,-4 -8,0 -16,1 -23,4 -8,2 -15,6 -20,10 -5,3 -9,7 -14,11"/>
   <path class="fil0 str0" d="M26773 4680c-4,5 -10,8 -16,11 -6,2 -13,4 -20,3 -7,0 -14,-3 -20,-6"/>
   <path class="fil0 str0" d="M26718 4688c70,40 155,40 225,0"/>
   <path class="fil0 str0" d="M26963 4637c2,6 2,13 1,19 -1,6 -3,13 -7,19 -4,6 -9,11 -15,14"/>
   <path class="fil0 str0" d="M26943 4688c70,-40 113,-114 113,-195"/>
   <path class="fil0 str0" d="M27055 4494c0,7 -2,14 -5,20 -3,6 -8,12 -13,15 -5,4 -11,7 -17,8"/>
   <path class="fil0 str0" d="M27020 4537c-6,1 -12,3 -17,6 -6,3 -13,7 -19,13 -6,5 -11,12 -15,18 -4,7 -7,14 -9,22 -2,8 -2,16 -2,23 0,6 1,12 3,18"/>
   <path class="fil0 str0" d="M27020 4450c6,1 12,4 17,8 5,4 10,9 13,15 3,6 5,13 5,20"/>
   <path class="fil0 str0" d="M27055 4494c0,-80 -43,-155 -113,-195"/>
   <path class="fil0 str0" d="M26943 4299c6,3 11,8 15,14 4,6 6,12 7,19 1,6 0,13 -1,19"/>
   <path class="fil0 str0" d="M26963 4351c-2,6 -3,12 -3,18 0,7 0,15 2,23 2,8 5,15 9,22 4,7 9,13 15,18 6,5 12,10 19,13 5,3 11,5 17,6"/>
   <path class="fil0 str0" d="M26887 4307c4,-5 10,-8 16,-11 6,-2 13,-4 20,-3 7,0 14,3 20,6"/>
   <path class="fil0 str0" d="M26943 4299c-70,-40 -155,-40 -225,0"/>
   <path class="fil0 str0" d="M26718 4299c6,-3 13,-6 20,-6 7,0 14,1 20,3 6,2 11,6 16,11"/>
   <path class="fil0 str0" d="M26773 4307c4,4 9,8 14,12 6,4 13,7 20,10 8,2 16,4 23,4 8,0 16,-1 23,-4 8,-2 15,-6 20,-10 5,-3 9,-7 14,-12"/>
   <path class="fil0 str0" d="M27295 4494c0,-257 -208,-465 -465,-465 -257,0 -465,208 -465,465 0,257 208,465 465,465 257,0 465,-208 465,-465z"/>
   <path class="fil0 str0" d="M26605 8454c0,-7 2,-14 5,-20 3,-6 8,-12 13,-15 5,-4 11,-7 17,-8"/>
   <path class="fil0 str0" d="M26640 8410c6,-1 12,-3 17,-6 6,-3 13,-7 19,-13 6,-5 11,-12 15,-18 4,-7 7,-14 9,-22 2,-8 2,-16 2,-23 0,-6 -1,-12 -3,-18"/>
   <path class="fil0 str0" d="M26697 8311c-2,-6 -2,-13 -1,-19 1,-6 3,-13 7,-19 4,-6 9,-11 15,-14"/>
   <path class="fil0 str0" d="M26718 8259c-70,40 -113,114 -113,195"/>
   <path class="fil0 str0" d="M26718 8648c-6,-3 -11,-8 -15,-14 -4,-6 -6,-12 -7,-19 -1,-6 0,-13 1,-19"/>
   <path class="fil0 str0" d="M26697 8597c2,-6 3,-12 3,-18 0,-7 0,-15 -2,-23 -2,-8 -5,-15 -9,-22 -4,-7 -9,-13 -15,-18 -6,-5 -12,-10 -19,-13 -5,-3 -11,-5 -17,-6"/>
   <path class="fil0 str0" d="M26640 8497c-6,-1 -12,-4 -17,-8 -5,-4 -10,-9 -13,-15 -3,-6 -5,-13 -5,-20"/>
   <path class="fil0 str0" d="M26605 8454c0,80 43,155 113,195"/>
   <path class="fil0 str0" d="M26943 8648c-6,3 -13,6 -20,6 -7,0 -14,-1 -20,-3 -6,-2 -11,-6 -16,-11"/>
   <path class="fil0 str0" d="M26887 8640c-4,-4 -9,-8 -14,-11 -6,-4 -13,-7 -20,-10 -8,-2 -16,-4 -23,-4 -8,0 -16,1 -23,4 -8,2 -15,6 -20,10 -5,3 -9,7 -14,11"/>
   <path class="fil0 str0" d="M26773 8640c-4,5 -10,8 -16,11 -6,2 -13,4 -20,3 -7,0 -14,-3 -20,-6"/>
   <path class="fil0 str0" d="M26718 8648c70,40 155,40 225,0"/>
   <path class="fil0 str0" d="M26963 8597c2,6 2,13 1,19 -1,6 -3,13 -7,19 -4,6 -9,11 -15,14"/>
   <path class="fil0 str0" d="M26943 8648c70,-40 113,-114 113,-195"/>
   <path class="fil0 str0" d="M27055 8454c0,7 -2,14 -5,20 -3,6 -8,12 -13,15 -5,4 -11,7 -17,8"/>
   <path class="fil0 str0" d="M27020 8497c-6,1 -12,3 -17,6 -6,3 -13,7 -19,13 -6,5 -11,12 -15,18 -4,7 -7,14 -9,22 -2,8 -2,16 -2,23 0,6 1,12 3,18"/>
   <path class="fil0 str0" d="M27020 8410c6,1 12,4 17,8 5,4 10,9 13,15 3,6 5,13 5,20"/>
   <path class="fil0 str0" d="M27055 8454c0,-80 -43,-155 -113,-195"/>
   <path class="fil0 str0" d="M26943 8259c6,3 11,8 15,14 4,6 6,12 7,19 1,6 0,13 -1,19"/>
   <path class="fil0 str0" d="M26963 8311c-2,6 -3,12 -3,18 0,7 0,15 2,23 2,8 5,15 9,22 4,7 9,13 15,18 6,5 12,10 19,13 5,3 11,5 17,6"/>
   <path class="fil0 str0" d="M26887 8267c4,-5 10,-8 16,-11 6,-2 13,-4 20,-3 7,0 14,3 20,6"/>
   <path class="fil0 str0" d="M26943 8259c-70,-40 -155,-40 -225,0"/>
   <path class="fil0 str0" d="M26718 8259c6,-3 13,-6 20,-6 7,0 14,1 20,3 6,2 11,6 16,11"/>
   <path class="fil0 str0" d="M26773 8267c4,4 9,8 14,12 6,4 13,7 20,10 8,2 16,4 23,4 8,0 16,-1 23,-4 8,-2 15,-6 20,-10 5,-3 9,-7 14,-12"/>
   <path class="fil0 str0" d="M27295 8454c0,-257 -208,-465 -465,-465 -257,0 -465,208 -465,465 0,257 208,465 465,465 257,0 465,-208 465,-465z"/>
  </g>
 </g>
</svg>
